<svg width="16" height="16" viewBox="0 0 16 16" fill="none" xmlns="http://www.w3.org/2000/svg">
<path d="M11.7304 0.503047C11.87 0.516324 11.9302 0.685885 11.831 0.785075L4.89764 7.71849C4.81911 7.79701 4.76293 7.89503 4.73487 8.00248L3.90153 11.1928C3.84546 11.4075 3.90741 11.6358 4.0643 11.7927C4.2212 11.9496 4.44952 12.0116 4.6642 11.9555L7.85455 11.1222C7.962 11.0941 8.06002 11.0379 8.13854 10.9594L15.1701 3.92779C15.2688 3.82913 15.4375 3.88816 15.452 4.02691C15.745 6.81789 15.7284 9.63317 15.4023 12.4214C15.2166 14.0089 13.9406 15.2554 12.3586 15.4322C9.48521 15.7534 6.51462 15.7534 3.64119 15.4322C2.05919 15.2554 0.783197 14.0089 0.59752 12.4214C0.253952 9.48389 0.253952 6.51635 0.597519 3.57885C0.783197 1.9913 2.05919 0.744821 3.64119 0.56801C6.30568 0.270214 9.05371 0.248559 11.7304 0.503047Z" fill="#406882"/>
<path d="M12.8527 1.53118C12.934 1.44999 13.0658 1.44998 13.1471 1.53118L14.3257 2.70982C14.4071 2.79117 14.4071 2.92308 14.3257 3.00444L7.41454 9.91563C7.3885 9.94166 7.35547 9.96048 7.31988 9.96988L5.72453 10.3866C5.57067 10.4267 5.43054 10.2862 5.47048 10.1323L5.88715 8.53715C5.8965 8.50134 5.91523 8.46866 5.9414 8.44249L12.8527 1.53118Z" fill="#406882"/>
</svg>
