<svg width="16" height="14" viewBox="0 0 16 14" fill="none" xmlns="http://www.w3.org/2000/svg">
<path d="M4.07433 1.08974C6.68653 0.862665 9.3135 0.862665 11.9257 1.08974L13.1842 1.19914C14.022 1.27197 14.7396 1.77169 15.1114 2.48651C15.159 2.57795 15.1233 2.68867 15.0357 2.74293L9.81403 5.97537C8.69414 6.66863 7.28204 6.68318 6.14811 6.01313L0.891586 2.907C0.806661 2.85682 0.767679 2.75352 0.805952 2.6626C1.14608 1.85463 1.91078 1.27781 2.8158 1.19914L4.07433 1.08974Z" fill="#406882"/>
<path d="M0.801675 4.30579C0.671705 4.22899 0.505869 4.31164 0.490719 4.46184C0.279273 6.55821 0.330449 8.67441 0.644247 10.7612C0.809675 11.8613 1.70751 12.7046 2.8158 12.801L4.07433 12.9104C6.68653 13.1374 9.31351 13.1374 11.9257 12.9104L13.1842 12.801C14.2925 12.7046 15.1904 11.8613 15.3558 10.7612C15.6787 8.6136 15.7235 6.43484 15.4902 4.27862C15.4738 4.12736 15.3051 4.04624 15.1758 4.12632L10.472 7.0382C8.95683 7.97614 7.04634 7.99582 5.5122 7.08928L0.801675 4.30579Z" fill="#406882"/>
</svg>
