<svg width="186" height="89" viewBox="0 0 186 89" fill="none" xmlns="http://www.w3.org/2000/svg">
<path d="M112.845 21.5H104.345C104.01 21.5 103.698 21.5572 103.406 21.6836C103.114 21.8076 102.865 21.9722 102.655 22.1749C102.449 22.3824 102.285 22.6089 102.172 22.8546C102.058 23.1026 102 23.3602 102 23.6249V41.5254C102 42.062 102.213 42.5222 102.643 42.9157C103.068 43.3044 103.582 43.5 104.186 43.5C104.79 43.5 105.307 43.3044 105.734 42.9157C106.162 42.5222 106.377 42.062 106.377 41.5254V25.4159H112.845C113.447 25.4159 113.959 25.2322 114.374 24.8602C114.795 24.4906 115 24.0279 115 23.4722C115 22.938 114.795 22.4754 114.374 22.0843C113.959 21.6956 113.447 21.5 112.845 21.5Z" fill="#406882"/>
<path d="M130.872 21.5H120.13C119.543 21.5 119.042 21.7021 118.625 22.1016C118.207 22.5011 118 22.9671 118 23.5022V41.4978C118 42.0329 118.207 42.5013 118.625 42.8984C119.042 43.3026 119.543 43.5 120.13 43.5C120.721 43.5 121.219 43.3026 121.635 42.8984C122.052 42.5013 122.261 42.0329 122.261 41.4978V25.4068H128.739V41.4978C128.739 42.0329 128.955 42.5013 129.381 42.8984C129.807 43.3026 130.305 43.5 130.872 43.5C131.46 43.5 131.963 43.3026 132.377 42.8984C132.793 42.5013 133 42.0329 133 41.4978V23.5022C133 22.9671 132.788 22.5011 132.363 22.1016C131.935 21.7021 131.439 21.5 130.872 21.5Z" fill="#406882"/>
<path d="M147.74 41.5224C147.74 42.0492 147.954 42.5124 148.379 42.9074C148.805 43.3025 149.303 43.5 149.87 43.5C150.458 43.5 150.961 43.3025 151.377 42.9074C151.791 42.5124 152 42.0492 152 41.5224V23.4493C152 22.9226 151.786 22.4664 151.363 22.0785C150.937 21.6928 150.439 21.5 149.87 21.5C149.303 21.5 148.805 21.6928 148.379 22.0785C147.954 22.4664 147.74 22.9226 147.74 23.4493V30.5389H141.26V23.4493C141.26 22.9226 141.053 22.4664 140.637 22.0785C140.221 21.6928 139.72 21.5 139.132 21.5C138.54 21.5 138.042 21.6928 137.625 22.0785C137.209 22.4664 137 22.9226 137 23.4493V41.5224C137 42.0492 137.209 42.5124 137.625 42.9074C138.042 43.3025 138.54 43.5 139.132 43.5C139.72 43.5 140.221 43.3025 140.637 42.9074C141.053 42.5124 141.26 42.0492 141.26 41.5224V34.4305H147.74V41.5224Z" fill="#406882"/>
<path d="M166.839 21.5H156.13C155.824 21.5 155.547 21.5572 155.293 21.6834C155.039 21.8072 154.816 21.9668 154.623 22.162C154.43 22.3573 154.28 22.5717 154.167 22.8074C154.056 23.0432 154 23.267 154 23.4695C154 24.0053 154.202 24.4625 154.607 24.8436C155.016 25.2199 155.521 25.4104 156.13 25.4104H159.353V41.5281C159.353 42.0616 159.563 42.526 159.979 42.9142C160.393 43.3023 160.896 43.5 161.486 43.5C162.074 43.5 162.574 43.3023 162.988 42.9142C163.404 42.526 163.614 42.0616 163.614 41.5281V25.4104H166.839C167.425 25.4104 167.935 25.2199 168.361 24.8436C168.784 24.4625 169 24.0053 169 23.4695C169 22.9146 168.774 22.4478 168.328 22.0668C167.883 21.6881 167.387 21.5 166.839 21.5Z" fill="#406882"/>
<path d="M181.47 36.8529C181.364 37.2005 181.183 37.5159 180.922 37.7922C180.661 38.0707 180.297 38.2963 179.826 38.4644C179.36 38.6324 178.761 38.7153 178.032 38.7153H175.375V32.937H178.032C180.427 32.937 181.627 33.8877 181.627 35.7962C181.627 36.153 181.571 36.5053 181.47 36.8529ZM185.437 32.937C185.061 32.122 184.525 31.4337 183.829 30.8651C183.129 30.301 182.291 29.8728 181.311 29.5851C180.335 29.2973 179.239 29.1523 178.032 29.1523H175.375V25.2824H182.47C183.073 25.2824 183.583 25.1028 184.001 24.746C184.414 24.3869 184.626 23.9426 184.626 23.4062C184.626 22.8882 184.414 22.4416 184.001 22.0617C183.583 21.6865 183.073 21.5 182.47 21.5H173.345C173.014 21.5 172.7 21.5576 172.408 21.6796C172.116 21.7947 171.867 21.9535 171.659 22.1538C171.449 22.3518 171.287 22.5705 171.171 22.8099C171.058 23.047 171 23.2957 171 23.5535V40.3544C171 40.6514 171.07 40.93 171.205 41.1878C171.34 41.4479 171.517 41.6712 171.734 41.86C171.954 42.0465 172.212 42.2007 172.502 42.3204C172.794 42.4401 173.106 42.5 173.436 42.5H178.032C179.49 42.5 180.729 42.3158 181.75 41.9475C182.772 41.5792 183.593 41.0842 184.218 40.458C184.843 39.8318 185.295 39.1136 185.577 38.3009C185.858 37.4837 186 36.6411 186 35.7686C186 34.6958 185.812 33.7496 185.437 32.937Z" fill="#406882"/>
<path d="M104.274 53.5027C104.435 52.8159 104.704 52.227 105.089 51.7335C105.473 51.2399 105.979 50.8628 106.606 50.6044C107.234 50.3414 108 50.211 108.91 50.211C109.515 50.211 110.082 50.2948 110.607 50.4578C111.13 50.6207 111.646 50.8675 112.152 51.1957C112.193 51.2353 112.242 51.2632 112.302 51.2818C112.366 51.3028 112.414 51.3331 112.456 51.3726C112.577 51.4471 112.679 51.51 112.774 51.5612C112.864 51.6077 112.979 51.631 113.122 51.631C113.385 51.631 113.594 51.5542 113.757 51.4006C113.917 51.2469 114 51.0514 114 50.8209C114 50.509 113.857 50.2157 113.562 49.9363C113.266 49.6546 112.881 49.4079 112.392 49.196C111.911 48.9842 111.349 48.8143 110.712 48.6886C110.077 48.5605 109.425 48.5 108.759 48.5C107.606 48.5 106.606 48.6746 105.758 49.0238C104.909 49.3683 104.206 49.8618 103.651 50.502C103.094 51.1375 102.681 51.9127 102.409 52.8206C102.136 53.7308 102 54.7341 102 55.8375V62.1904C102 63.2938 102.136 64.2925 102.409 65.1911C102.681 66.0919 103.094 66.8602 103.651 67.498C104.206 68.1382 104.909 68.6294 105.758 68.9786C106.606 69.3254 107.606 69.5 108.759 69.5C109.425 69.5 110.077 69.4371 110.712 69.3114C111.349 69.1857 111.911 69.0205 112.392 68.8179C112.881 68.6177 113.266 68.3733 113.562 68.0939C113.857 67.8123 114 67.5073 114 67.1791C114 66.9672 113.917 66.7764 113.757 66.6134C113.594 66.4504 113.385 66.3666 113.122 66.3666C112.94 66.3666 112.709 66.4644 112.426 66.66L112.091 66.8602C111.179 67.4794 110.123 67.789 108.91 67.789C108 67.789 107.234 67.6586 106.606 67.3979C105.979 67.1349 105.473 66.7647 105.089 66.2805C104.704 65.7963 104.435 65.2073 104.274 64.5113C104.109 63.8153 104.031 63.0424 104.031 62.1904V55.8375C104.031 54.9669 104.109 54.1894 104.274 53.5027Z" fill="#406882"/>
<path d="M127.087 62.1722C127.087 62.9836 126.996 63.7229 126.815 64.3877C126.636 65.055 126.358 65.6315 125.987 66.1128C125.615 66.594 125.141 66.9706 124.558 67.2403C123.978 67.5123 123.297 67.6471 122.513 67.6471C121.733 67.6471 121.054 67.5123 120.472 67.2403C119.889 66.9706 119.41 66.594 119.027 66.1128C118.649 65.6315 118.369 65.055 118.185 64.3877C118.004 63.7229 117.915 62.9836 117.915 62.1722V55.8301C117.915 55.0188 117.995 54.2725 118.158 53.596C118.318 52.9218 118.58 52.3429 118.942 51.8617C119.304 51.3758 119.777 51.0038 120.357 50.7434C120.937 50.4831 121.657 50.3529 122.513 50.3529C123.352 50.3529 124.063 50.4831 124.643 50.7434C125.225 51.0038 125.693 51.3758 126.058 51.8617C126.42 52.3429 126.682 52.9218 126.844 53.596C127.007 54.2725 127.087 55.0188 127.087 55.8301V62.1722ZM127.503 50.6574C126.977 49.9925 126.306 49.4648 125.485 49.0789C124.666 48.693 123.675 48.5 122.513 48.5C121.334 48.5 120.334 48.693 119.515 49.0789C118.694 49.4648 118.025 49.9925 117.502 50.6574C116.975 51.3246 116.599 52.1011 116.358 52.9892C116.119 53.8773 116 54.8235 116 55.8301V62.1722C116 63.1951 116.138 64.1529 116.415 65.0387C116.69 65.9291 117.101 66.7079 117.644 67.3705C118.185 68.0377 118.862 68.5608 119.671 68.9374C120.481 69.314 121.43 69.5 122.513 69.5C123.6 69.5 124.549 69.314 125.358 68.9374C126.17 68.5608 126.844 68.0377 127.386 67.3705C127.931 66.7079 128.333 65.9291 128.599 65.0387C128.869 64.1529 129 63.1951 129 62.1722V55.8301C129 54.8235 128.881 53.8773 128.647 52.9892C128.406 52.1011 128.025 51.3246 127.503 50.6574Z" fill="#406882"/>
<path d="M149.95 58.413C149.194 59.1485 148.073 59.5139 146.578 59.5139H142.917V50.3789H146.578C147.49 50.3789 148.234 50.5085 148.817 50.7749C149.397 51.0413 149.857 51.3879 150.197 51.8193C150.535 52.2483 150.768 52.7457 150.894 53.3021C151.02 53.8608 151.083 54.4219 151.083 54.99C151.083 56.5388 150.705 57.6798 149.95 58.413ZM151.561 50.4802C151.046 49.8862 150.386 49.4029 149.572 49.0422C148.758 48.6768 147.763 48.5 146.578 48.5H142.222C141.891 48.5 141.604 48.6226 141.364 48.8654C141.121 49.1106 141 49.4005 141 49.7329V68.4722C141 68.7668 141.096 69.012 141.291 69.2053C141.483 69.401 141.707 69.5 141.958 69.5C142.231 69.5 142.457 69.3986 142.642 69.1935C142.826 68.9884 142.917 68.7456 142.917 68.4722V61.3928H146.578C148.555 61.3928 150.118 60.8482 151.27 59.7638C152.424 58.677 153 57.0952 153 55.0183C153 54.1791 152.89 53.361 152.667 52.5666C152.443 51.7721 152.077 51.0767 151.561 50.4802Z" fill="#406882"/>
<path d="M157.979 62.6333L161.5 51.6567L164.992 62.6333H157.979ZM168.968 68.168L162.928 49.9203C162.784 49.5344 162.606 49.1974 162.394 48.9207C162.185 48.6418 161.883 48.5 161.5 48.5C161.096 48.5 160.791 48.6348 160.589 48.9045C160.386 49.1741 160.226 49.5135 160.104 49.9203L154.061 68.168C154.022 68.2819 154 68.4075 154 68.54C154 68.8329 154.107 69.0653 154.319 69.2373C154.531 69.4117 154.777 69.5 155.062 69.5C155.226 69.5 155.404 69.4256 155.594 69.2815C155.789 69.135 155.932 68.977 156.035 68.8026L157.402 64.5162H165.567L166.963 68.8026C167.024 69.0142 167.158 69.1862 167.358 69.3117C167.562 69.4372 167.752 69.5 167.938 69.5C168.24 69.5 168.496 69.4117 168.695 69.2373C168.898 69.0653 169 68.8329 169 68.54C169 68.4842 168.993 68.4191 168.985 68.3401C168.971 68.261 168.968 68.2029 168.968 68.168Z" fill="#406882"/>
<path d="M183.996 48.5C183.732 48.5 183.493 48.5953 183.28 48.7906C183.065 48.9836 182.962 49.2067 182.962 49.4555V58.0596H174.013V49.4555C174.013 49.2067 173.913 48.9836 173.72 48.7906C173.527 48.5953 173.288 48.5 173.004 48.5C172.723 48.5 172.484 48.5953 172.291 48.7906C172.098 48.9836 172 49.2067 172 49.4555V68.5143C172 68.7886 172.098 69.0164 172.291 69.2117C172.484 69.4024 172.723 69.5 173.004 69.5C173.288 69.5 173.527 69.4024 173.72 69.2117C173.913 69.0164 174.013 68.7886 174.013 68.5143V59.9125H182.962V68.5143C182.962 68.7886 183.065 69.0164 183.28 69.2117C183.493 69.4024 183.732 69.5 183.996 69.5C184.279 69.5 184.519 69.4024 184.712 69.2117C184.905 69.0164 185 68.7886 185 68.5143V49.4555C185 49.2067 184.897 48.9836 184.695 48.7906C184.494 48.5953 184.26 48.5 183.996 48.5Z" fill="#406882"/>
<path d="M21.154 29.9156H68.5652C69.3718 29.9156 70.0256 30.5671 70.0256 31.3714C70.0256 32.1757 69.3718 32.8295 68.5652 32.8295H21.154C18.5953 32.8295 16.5187 30.7552 16.5187 28.1965V25.8824C16.5187 23.3237 18.5953 21.2471 21.154 21.2471H68.5652C69.3718 21.2471 70.0256 21.9009 70.0256 22.7052C70.0256 23.5095 69.3718 24.1609 68.5652 24.1609H21.154C20.2062 24.1609 19.4348 24.9323 19.4348 25.8824V28.1965C19.4348 29.1443 20.2062 29.9156 21.154 29.9156ZM63.1538 67.941C63.1538 68.6842 62.5541 69.2886 61.8133 69.2886H60.9549C60.2165 69.2886 59.6168 68.6842 59.6168 67.941V40.0046C59.6168 39.2568 60.2165 38.6547 60.9549 38.6547H61.8133C62.5541 38.6547 63.1538 39.2568 63.1538 40.0046V67.941ZM54.4617 67.941C54.4617 68.6842 53.862 69.2886 53.1213 69.2886H52.2629C51.5244 69.2886 50.9224 68.6842 50.9224 67.941V40.0046C50.9224 39.2568 51.5244 38.6547 52.2629 38.6547H53.1213C53.862 38.6547 54.4617 39.2568 54.4617 40.0046V67.941ZM45.7673 67.941C45.7673 68.6842 45.17 69.2886 44.4315 69.2886H43.5708C42.83 69.2886 42.2327 68.6842 42.2327 67.941V40.0046C42.2327 39.2568 42.83 38.6547 43.5708 38.6547H44.4315C45.17 38.6547 45.7673 39.2568 45.7673 40.0046V67.941ZM37.0776 67.941C37.0776 68.6842 36.4779 69.2886 35.7371 69.2886H34.8787C34.1403 69.2886 33.5383 68.6842 33.5383 67.941V40.0046C33.5383 39.2568 34.1403 38.6547 34.8787 38.6547H35.7371C36.4779 38.6547 37.0776 39.2568 37.0776 40.0046V67.941ZM28.3832 67.941C28.3832 68.6842 27.7835 69.2886 27.0451 69.2886H26.1843C25.4459 69.2886 24.8462 68.6842 24.8462 67.941V40.0046C24.8462 39.2568 25.4459 38.6547 26.1843 38.6547H27.0451C27.7835 38.6547 28.3832 39.2568 28.3832 40.0046V67.941ZM43.9988 0.5C19.6982 0.5 0 20.1982 0 44.4988C0 68.7994 19.6982 88.5 43.9988 88.5C68.3018 88.5 88 68.7994 88 44.4988C88 20.1982 68.3018 0.5 43.9988 0.5Z" fill="#406882"/>
</svg>
