<svg width="80" height="46" viewBox="0 0 80 46" fill="none" xmlns="http://www.w3.org/2000/svg">
<path d="M39.2447 3.19267C39.2925 3.26092 39.3194 3.34206 39.3219 3.42585C39.3245 3.50964 39.3026 3.59231 39.2591 3.66346C39.2155 3.73461 39.1522 3.79104 39.0772 3.82564C39.0022 3.86023 38.9187 3.87144 38.8374 3.85785C38.7562 3.84426 38.6807 3.80648 38.6204 3.74928C38.5602 3.69207 38.518 3.61801 38.4991 3.53642C38.4802 3.45483 38.4855 3.36936 38.5143 3.29081C38.543 3.21227 38.594 3.14415 38.6608 3.09505C38.7053 3.06226 38.7558 3.03878 38.8094 3.02594C38.8629 3.0131 38.9184 3.01116 38.9727 3.02023C39.0269 3.0293 39.0789 3.04921 39.1256 3.0788C39.1723 3.1084 39.2127 3.1471 39.2447 3.19267Z" fill="#406882"/>
<path d="M36.3502 3.02502C36.3981 3.09327 36.4249 3.17441 36.4275 3.2582C36.4301 3.34199 36.4082 3.42467 36.3646 3.49582C36.3211 3.56697 36.2578 3.62339 36.1828 3.65799C36.1077 3.69258 36.0243 3.7038 35.943 3.69021C35.8617 3.67662 35.7862 3.63884 35.726 3.58163C35.6658 3.52443 35.6236 3.45036 35.6047 3.36877C35.5858 3.28718 35.5911 3.20172 35.6198 3.12317C35.6486 3.04462 35.6996 2.9765 35.7663 2.9274C35.8109 2.89462 35.8614 2.87113 35.915 2.85829C35.9685 2.84545 36.024 2.84352 36.0782 2.85259C36.1325 2.86166 36.1845 2.88157 36.2312 2.91116C36.2778 2.94075 36.3183 2.97945 36.3502 3.02502Z" fill="#406882"/>
<path d="M32.8594 5.72648C32.9401 5.84155 32.9854 5.97836 32.9897 6.11963C32.994 6.2609 32.957 6.4003 32.8835 6.52023C32.81 6.64015 32.7033 6.73522 32.5767 6.79343C32.4501 6.85164 32.3095 6.87039 32.1724 6.84729C32.0354 6.8242 31.9082 6.76031 31.8068 6.66369C31.7055 6.56706 31.6345 6.44204 31.6029 6.30441C31.5713 6.16677 31.5805 6.0227 31.6294 5.89038C31.6782 5.75806 31.7644 5.64343 31.8772 5.56096C32.0291 5.45059 32.2178 5.40604 32.4019 5.43707C32.5861 5.4681 32.7506 5.57218 32.8594 5.72648Z" fill="#406882"/>
<path d="M33.3369 6.66234C33.3513 6.86808 33.3309 7.0748 33.2765 7.2735C33.1916 7.57794 33.0332 7.85591 32.8156 8.08203C32.4982 8.39007 32.1218 8.6282 31.7099 8.78155C31.298 8.93491 30.8595 9.00019 30.4217 8.97333C30.21 8.96506 30.0001 8.93159 29.7961 8.87359C29.5916 8.81904 29.3953 8.73696 29.2122 8.62954C28.8395 8.42575 28.5423 8.10391 28.3655 7.71278C28.2835 7.51801 28.2466 7.30661 28.2578 7.09499C28.269 6.88338 28.328 6.67723 28.4302 6.49256C28.5361 6.31295 28.6883 6.1662 28.8702 6.06814C29.0576 5.96794 29.2653 5.91346 29.477 5.90898C29.6189 5.90277 29.7605 5.9261 29.8931 5.97756C30.0258 6.02901 30.1468 6.10749 30.2486 6.2082C30.3438 6.29329 30.4107 6.40632 30.4402 6.53172C30.4697 6.65713 30.4603 6.78875 30.4133 6.9085C30.385 6.95751 30.3461 6.99926 30.2994 7.03054C30.2528 7.06181 30.1997 7.08177 30.1443 7.08888C30.0234 7.10908 29.8993 7.08977 29.7898 7.03371C29.7368 7.00699 29.6889 6.97109 29.648 6.9276C29.6061 6.88243 29.5703 6.83175 29.5417 6.77693C29.4843 6.66139 29.4516 6.53484 29.4457 6.40556C29.4362 6.13905 29.4982 5.87495 29.6251 5.64159C29.7493 5.40958 29.9181 5.20535 30.1214 5.04103C30.5175 4.72127 30.9995 4.53112 31.5039 4.49564C31.9842 4.46201 32.4667 4.51226 32.9303 4.6442C33.3711 4.76929 33.803 4.92456 34.2232 5.10894C35.0448 5.45909 35.8227 5.80924 36.6067 5.95779C36.9844 6.03276 37.3707 6.05134 37.7537 6.01296C38.1125 5.97785 38.464 5.8877 38.7963 5.74558C39.3935 5.51169 39.8979 5.08343 40.231 4.52747C40.3681 4.28987 40.452 4.02437 40.4765 3.74995C40.501 3.47554 40.4656 3.199 40.3728 2.94013C40.2864 2.71417 40.1425 2.51569 39.9558 2.36504C39.7917 2.22677 39.5982 2.12939 39.3906 2.08067C39.2039 2.0317 39.0081 2.0317 38.8213 2.08067C38.6553 2.12935 38.5039 2.21986 38.3813 2.34381C38.2785 2.44375 38.1962 2.56351 38.1393 2.69613C38.0823 2.82874 38.0519 2.97156 38.0498 3.11626C38.0512 3.33821 38.1381 3.55075 38.2917 3.70834C38.4008 3.82828 38.549 3.90371 38.7087 3.92055C38.8146 3.93017 38.9211 3.91114 39.0174 3.86537C39.0748 3.83636 39.127 3.79762 39.1717 3.75078C39.1936 3.72707 39.2125 3.70069 39.228 3.67226L39.2405 3.64892L39.2259 3.67014C39.2081 3.69675 39.1871 3.72099 39.1633 3.74229C39.1178 3.7858 39.0648 3.82034 39.0069 3.84416C38.9139 3.88299 38.8125 3.89616 38.7129 3.88235C38.5679 3.85842 38.4357 3.7833 38.3396 3.67014C38.2068 3.51715 38.1367 3.31817 38.1436 3.11415C38.1493 2.98146 38.1808 2.85124 38.2363 2.73103C38.2917 2.61082 38.3701 2.503 38.4668 2.41384C38.5794 2.30622 38.7162 2.22826 38.8651 2.18677C39.0336 2.14435 39.2097 2.14435 39.3781 2.18677C39.5752 2.23741 39.7572 2.33614 39.9083 2.47443C40.0595 2.61272 40.1752 2.7864 40.2456 2.98045C40.3258 3.21809 40.3535 3.47077 40.3268 3.72055C40.3002 3.97032 40.2197 4.21105 40.0913 4.42562C39.7715 4.94112 39.2936 5.33494 38.7317 5.5461C38.4197 5.67477 38.0909 5.75627 37.7557 5.78802C37.3925 5.8202 37.0265 5.79876 36.6693 5.72436C35.9186 5.58217 35.1616 5.23627 34.3358 4.87551C33.9068 4.68228 33.465 4.5199 33.0137 4.38954C32.5225 4.24812 32.0113 4.19287 31.5019 4.22614C30.9456 4.26211 30.4132 4.46933 29.9754 4.82033C29.7446 5.00799 29.5526 5.24021 29.4103 5.50365C29.2594 5.7809 29.1872 6.09535 29.2017 6.41192C29.2052 6.57814 29.2436 6.74169 29.3144 6.89152C29.3544 6.96851 29.4042 7.03985 29.4624 7.10374C29.5227 7.16936 29.5932 7.22455 29.6709 7.26714C29.8319 7.34969 30.0143 7.37864 30.1923 7.3499C30.2883 7.3359 30.3801 7.3 30.4606 7.24488C30.5411 7.18977 30.6083 7.11685 30.6573 7.03158C30.7491 6.85945 30.7708 6.6575 30.7178 6.46922C30.6729 6.2901 30.5815 6.12661 30.4529 5.99599C30.3249 5.87005 30.1732 5.7717 30.007 5.70679C29.8407 5.64189 29.6633 5.61177 29.4854 5.61825C29.2291 5.62214 28.9773 5.68604 28.7492 5.805C28.5199 5.92819 28.327 6.11131 28.1904 6.33553C28.0595 6.55973 27.9801 6.8111 27.9581 7.07089C27.9361 7.33068 27.972 7.59218 28.0632 7.83587C28.1523 8.07642 28.2845 8.29804 28.4531 8.48948C28.617 8.67846 28.8057 8.84343 29.0141 8.97969C29.2193 9.11827 29.4416 9.22886 29.6751 9.30863C29.9049 9.39037 30.1426 9.44727 30.3841 9.47839C30.9064 9.55068 31.4378 9.50978 31.9435 9.35837C32.4491 9.20696 32.9176 8.94846 33.3182 8.59983C33.4888 8.44231 33.6381 8.26249 33.7624 8.06506C33.8745 7.88948 33.9635 7.6997 34.0272 7.50057C34.1203 7.20992 34.1565 6.90349 34.1335 6.59867C34.1211 6.32686 34.0415 6.06263 33.9021 5.83046C33.7597 5.60045 33.5526 5.4193 33.3078 5.31054C33.1117 5.22395 32.8983 5.18555 32.6849 5.19845C32.4715 5.21136 32.2641 5.2752 32.0795 5.38481C31.9557 5.45428 31.8491 5.55154 31.7678 5.66921C31.6865 5.78688 31.6327 5.92186 31.6103 6.0639C31.5936 6.26125 31.6562 6.35675 31.7062 6.35887C31.7563 6.36099 31.8147 6.27823 31.9022 6.17424C32.0108 6.04346 32.1565 5.95006 32.3193 5.90686C32.4267 5.87835 32.5381 5.86831 32.6488 5.87715C32.7681 5.8879 32.8835 5.9256 32.9866 5.9875C33.0958 6.06124 33.185 6.16164 33.2462 6.27953C33.3074 6.39741 33.3386 6.52902 33.3369 6.66234Z" fill="#406882"/>
<path d="M36.3794 3.15659C36.3853 3.16745 36.3901 3.17881 36.394 3.19054C36.4078 3.22498 36.4156 3.26161 36.417 3.29877C36.4179 3.37313 36.4015 3.44666 36.3693 3.51339C36.337 3.58013 36.2898 3.6382 36.2314 3.68288C36.0353 3.81806 35.7951 3.86984 35.562 3.82718C35.3832 3.80289 35.2116 3.74014 35.0585 3.64309C34.9054 3.54605 34.7744 3.41694 34.6742 3.26436C34.574 3.11177 34.5069 2.93922 34.4773 2.75817C34.4477 2.57713 34.4563 2.39174 34.5026 2.21436C34.5575 1.98535 34.6688 1.77431 34.8259 1.60107C34.9981 1.41955 35.2137 1.28649 35.4515 1.21485C35.7005 1.13831 35.9645 1.12736 36.2189 1.18301C36.4807 1.24023 36.7261 1.35785 36.9362 1.5268C37.2607 1.80002 37.492 2.17072 37.5968 2.58583C37.7017 3.00093 37.6749 3.43916 37.5201 3.83779C37.4177 4.09259 37.2675 4.32467 37.078 4.52111C36.7255 4.88964 36.2582 5.12217 35.7559 5.17897C35.3338 5.21281 34.9091 5.16456 34.5047 5.03679C34.1335 4.92857 33.8103 4.79911 33.5142 4.69725C33.0517 4.52453 32.567 4.42089 32.0753 4.38954C31.9002 4.38954 31.7625 4.38954 31.6687 4.38954H31.5269L31.6666 4.35771C31.7584 4.33861 31.896 4.31527 32.0837 4.29617C32.5933 4.24534 33.1076 4.28048 33.6059 4.40016C33.9208 4.46806 34.2566 4.55931 34.6111 4.6251C34.9706 4.70121 35.3404 4.7127 35.7038 4.65906C36.0772 4.59245 36.4178 4.40043 36.6714 4.11367C36.805 3.9689 36.9087 3.79834 36.9764 3.61209C37.0441 3.42583 37.0744 3.22764 37.0655 3.02926C37.0586 2.83311 37.0127 2.64042 36.9306 2.4628C36.8486 2.28519 36.732 2.12632 36.588 1.99579C36.4559 1.87742 36.2987 1.7917 36.1287 1.74532C35.9587 1.69894 35.7804 1.69315 35.6079 1.7284C35.4538 1.76307 35.3105 1.83597 35.1908 1.94061C35.0762 2.04661 34.9894 2.18011 34.9385 2.32896C34.8885 2.46798 34.8706 2.61683 34.8861 2.76402C34.9017 2.91121 34.9503 3.05278 35.0281 3.17781C35.1696 3.39637 35.3835 3.55601 35.6308 3.6277C35.8203 3.69218 36.0269 3.6808 36.2084 3.59587C36.2643 3.56564 36.3123 3.52238 36.3485 3.46963C36.3848 3.41689 36.4082 3.35616 36.417 3.29241C36.4225 3.25798 36.4225 3.22285 36.417 3.18842L36.3794 3.15659Z" fill="#406882"/>
<path d="M32.8156 2.85949C32.7893 2.85149 32.764 2.84008 32.7405 2.82554C32.6716 2.78082 32.6161 2.71769 32.58 2.64304C32.5487 2.58053 32.5299 2.51228 32.5249 2.44231C32.5199 2.37234 32.5287 2.30205 32.5508 2.23559C32.5861 2.14495 32.6425 2.06439 32.7151 2.00082C32.7878 1.93724 32.8745 1.89255 32.9678 1.87058C33.0815 1.84353 33.2001 1.84719 33.3119 1.8812C33.435 1.92164 33.5452 1.99492 33.631 2.09341C33.7249 2.19513 33.7923 2.31915 33.827 2.45416C33.8625 2.5998 33.8625 2.75205 33.827 2.89769C33.7896 3.04864 33.722 3.19009 33.6283 3.31316C33.5346 3.43623 33.417 3.53826 33.2827 3.61284C33.01 3.76234 32.7013 3.83004 32.3923 3.80808C32.0962 3.79747 31.8376 3.74866 31.6019 3.7423C31.373 3.7345 31.144 3.75517 30.92 3.80384C30.5315 3.88974 30.165 4.05744 29.844 4.29617C29.6212 4.46212 29.4225 4.65931 29.2539 4.88188C29.1892 4.96457 29.1293 5.05101 29.0745 5.14077L29.1016 5.06438C29.1271 4.99212 29.1564 4.92128 29.1892 4.85217C29.3152 4.58232 29.4843 4.33563 29.6897 4.12216C30.0023 3.79591 30.3901 3.55444 30.8179 3.41974C31.0731 3.33789 31.3386 3.29358 31.6061 3.28816C31.8876 3.28816 32.1587 3.32848 32.409 3.33697C32.6345 3.35546 32.861 3.31377 33.0658 3.21601C33.1529 3.17406 33.2309 3.11494 33.2953 3.04209C33.3598 2.96923 33.4093 2.88408 33.4412 2.79158C33.4704 2.71163 33.4802 2.62566 33.4696 2.54104C33.4591 2.45641 33.4286 2.37564 33.3807 2.30562C33.3404 2.24215 33.2842 2.19078 33.2178 2.15683C33.1515 2.12288 33.0774 2.10758 33.0033 2.11251C32.938 2.11567 32.8743 2.13442 32.8175 2.16722C32.7606 2.20003 32.7121 2.24598 32.6759 2.30137C32.6223 2.39811 32.608 2.5124 32.6363 2.61969C32.6537 2.69228 32.6897 2.7589 32.7405 2.8128C32.763 2.83233 32.7883 2.84809 32.8156 2.85949Z" fill="#406882"/>
<path d="M38.5586 7.06342C38.5367 7.08515 38.5165 7.10856 38.4981 7.13345C38.4489 7.20188 38.4186 7.28249 38.4105 7.36688C38.3979 7.49174 38.4321 7.61685 38.5065 7.71704C38.5567 7.7728 38.6191 7.81585 38.6886 7.84274C38.7581 7.86964 38.8329 7.87964 38.9068 7.87195C38.9903 7.86523 39.0705 7.83591 39.139 7.78703C39.2076 7.73814 39.2621 7.67148 39.2968 7.59395C39.3386 7.50899 39.36 7.41519 39.3594 7.3202C39.3565 7.22235 39.3315 7.1265 39.2864 7.04008C39.1819 6.84403 39.0059 6.69767 38.7963 6.63263C38.5508 6.55933 38.2909 6.5513 38.0414 6.60929C37.762 6.66234 37.4659 6.75784 37.1489 6.79816C36.8482 6.83859 36.5434 6.8343 36.2439 6.78542C35.7428 6.70639 35.2691 6.50143 34.8655 6.18911C34.6001 5.98558 34.3703 5.73808 34.1857 5.45697C34.1231 5.35935 34.0793 5.27871 34.0501 5.22566L34.0084 5.14078L34.0689 5.2108C34.1085 5.25749 34.169 5.32328 34.2503 5.4018C34.4766 5.62282 34.7321 5.81066 35.0094 5.95991C35.408 6.17354 35.8464 6.29936 36.296 6.32917C36.5548 6.34495 36.8145 6.32928 37.0697 6.28248C37.3303 6.23579 37.6139 6.13605 37.9434 6.07027C38.2864 5.99387 38.6436 6.01815 38.9736 6.1403C39.1363 6.20115 39.2849 6.29577 39.4098 6.41815C39.5347 6.54053 39.6333 6.68801 39.6993 6.85121C39.763 7.00746 39.7873 7.17741 39.7702 7.34567C39.7536 7.50312 39.6992 7.65399 39.6117 7.78494C39.5295 7.90806 39.4174 8.00748 39.2864 8.07355C39.1667 8.13078 39.0344 8.15493 38.9027 8.14358C38.7929 8.13664 38.6865 8.10245 38.5927 8.044C38.4989 7.98556 38.4206 7.90463 38.3647 7.80829C38.329 7.73739 38.3075 7.65999 38.3014 7.58059C38.2953 7.50118 38.3048 7.42134 38.3292 7.34567C38.3571 7.25532 38.41 7.17503 38.4814 7.11435C38.506 7.09567 38.5318 7.07866 38.5586 7.06342Z" fill="#406882"/>
<path d="M37.9038 2.64728L37.9205 2.5624C37.9205 2.50722 37.9497 2.43082 37.9747 2.33533C38.0441 2.10026 38.1422 1.87497 38.2667 1.66473C38.4807 1.30588 38.7645 0.995356 39.1008 0.752224C39.1559 0.709661 39.2203 0.681266 39.2885 0.669458C39.3418 0.656641 39.3977 0.660339 39.449 0.680073C39.4936 0.696156 39.534 0.722531 39.5669 0.757139C39.5998 0.791748 39.6244 0.83365 39.6388 0.879553C39.6557 0.924861 39.6632 0.973223 39.6609 1.02162C39.6586 1.07002 39.6464 1.11741 39.6253 1.16083C39.6042 1.20425 39.5745 1.24276 39.538 1.27397C39.5016 1.30517 39.4592 1.32839 39.4136 1.34217C39.2988 1.3814 39.1866 1.42818 39.0778 1.48224C38.6728 1.68994 38.3268 1.99969 38.0727 2.38201C38.0227 2.46053 37.981 2.52632 37.9559 2.57513L37.9038 2.64728Z" fill="#406882"/>
<path d="M37.7641 2.36079L37.7328 2.2844C37.7061 2.21557 37.6852 2.14458 37.6702 2.07218C37.6201 1.8416 37.6102 1.60383 37.6411 1.36976C37.6719 1.12132 37.7299 0.87717 37.8141 0.641868C37.885 0.442389 37.9476 0.300211 37.9622 0.262013C37.9779 0.212957 38.0047 0.168366 38.0405 0.131893C38.0764 0.0954203 38.1202 0.068102 38.1684 0.0521644C38.2166 0.0362268 38.2678 0.032124 38.3179 0.0401964C38.3679 0.0482687 38.4154 0.068283 38.4564 0.0986053C38.498 0.124283 38.5334 0.159127 38.56 0.200567C38.5866 0.242007 38.6037 0.288987 38.6101 0.338057C38.6165 0.387126 38.6121 0.437032 38.597 0.484102C38.5819 0.531171 38.5567 0.574206 38.5231 0.610038C38.2942 0.866379 38.0986 1.15168 37.9413 1.45889C37.8492 1.65175 37.79 1.85913 37.7662 2.07218C37.7617 2.14285 37.7617 2.21373 37.7662 2.2844L37.7641 2.36079Z" fill="#406882"/>
<path d="M37.2865 1.83026C37.2865 1.83026 37.2302 1.75599 37.151 1.63927C37.0523 1.48999 36.9638 1.334 36.8862 1.1724C36.7561 0.901606 36.6561 0.616898 36.588 0.32355C36.54 0.0986045 36.7318 -0.0117437 36.9174 0.000989081C37.103 0.0137218 37.274 0.113463 37.2469 0.293843C37.1999 0.557699 37.1803 0.825855 37.1885 1.09388C37.1966 1.34209 37.2294 1.58882 37.2865 1.83026Z" fill="#406882"/>
<path d="M40.7649 3.19267C40.717 3.26092 40.6902 3.34206 40.6876 3.42585C40.685 3.50964 40.7069 3.59231 40.7505 3.66346C40.794 3.73461 40.8573 3.79104 40.9323 3.82564C41.0074 3.86023 41.0908 3.87144 41.1721 3.85785C41.2534 3.84426 41.3289 3.80648 41.3891 3.74928C41.4493 3.69207 41.4915 3.61801 41.5104 3.53642C41.5293 3.45483 41.524 3.36936 41.4953 3.29081C41.4665 3.21227 41.4155 3.14415 41.3488 3.09505C41.3042 3.06226 41.2537 3.03878 41.2001 3.02594C41.1466 3.0131 41.0911 3.01116 41.0368 3.02023C40.9826 3.0293 40.9306 3.04921 40.8839 3.0788C40.8372 3.1084 40.7968 3.1471 40.7649 3.19267Z" fill="#406882"/>
<path d="M43.6593 3.02502C43.6117 3.09331 43.5851 3.17439 43.5827 3.25806C43.5803 3.34172 43.6023 3.42424 43.6459 3.49523C43.6894 3.56622 43.7527 3.62251 43.8276 3.65703C43.9025 3.69155 43.9858 3.70275 44.067 3.68923C44.1481 3.67571 44.2236 3.63806 44.2838 3.58103C44.344 3.524 44.3863 3.45013 44.4053 3.36871C44.4244 3.28729 44.4193 3.20195 44.3909 3.12342C44.3624 3.0449 44.3117 2.9767 44.2453 2.9274C44.2006 2.89429 44.15 2.87053 44.0962 2.8575C44.0425 2.84448 43.9867 2.84245 43.9322 2.85153C43.8777 2.86061 43.8255 2.88063 43.7787 2.91041C43.7318 2.94019 43.6912 2.97915 43.6593 3.02502Z" fill="#406882"/>
<path d="M47.1418 5.72648C47.0605 5.8418 47.0146 5.97907 47.01 6.12093C47.0053 6.26279 47.0422 6.40286 47.1158 6.52341C47.1894 6.64395 47.2966 6.73955 47.4236 6.79811C47.5507 6.85666 47.692 6.87554 47.8296 6.85235C47.9672 6.82916 48.0949 6.76494 48.1966 6.66783C48.2984 6.57072 48.3695 6.44508 48.401 6.30681C48.4325 6.16855 48.423 6.02387 48.3737 5.8911C48.3244 5.75833 48.2375 5.64343 48.124 5.56096C47.9719 5.45115 47.7833 5.40693 47.5994 5.43793C47.4154 5.46893 47.2509 5.57265 47.1418 5.72648Z" fill="#406882"/>
<path d="M46.6726 6.66234C46.6566 6.86759 46.6742 7.07412 46.7247 7.2735C46.8096 7.57794 46.968 7.85591 47.1856 8.08203C47.503 8.39007 47.8794 8.6282 48.2913 8.78155C48.7032 8.93491 49.1417 9.00019 49.5795 8.97333C49.7912 8.96506 50.0011 8.93159 50.2051 8.87359C50.4097 8.8194 50.6061 8.73731 50.789 8.62954C51.1621 8.42638 51.4595 8.10435 51.6357 7.71278C51.7182 7.51812 51.7553 7.30665 51.7441 7.09495C51.7329 6.88325 51.6736 6.67707 51.571 6.49256C51.4651 6.31295 51.3129 6.1662 51.131 6.06814C50.9443 5.96797 50.7373 5.91347 50.5263 5.90898C50.3841 5.90247 50.2421 5.92567 50.109 5.97713C49.976 6.02859 49.8547 6.10722 49.7526 6.2082C49.6574 6.29329 49.5904 6.40632 49.5609 6.53172C49.5314 6.65713 49.5408 6.78875 49.5879 6.9085C49.6164 6.95777 49.6556 6.99969 49.7027 7.03098C49.7497 7.06226 49.8032 7.08208 49.859 7.08888C49.9792 7.10906 50.1026 7.08974 50.2114 7.03371C50.2643 7.00699 50.3123 6.97109 50.3532 6.9276C50.3951 6.88243 50.4308 6.83175 50.4595 6.77693C50.5178 6.66177 50.5506 6.535 50.5555 6.40556C50.566 6.13895 50.504 5.87455 50.3761 5.64159C50.252 5.41013 50.084 5.20601 49.8819 5.04103C49.4858 4.72127 49.0037 4.53112 48.4993 4.49564C48.0183 4.46189 47.5352 4.51214 47.0709 4.6442C46.6301 4.76929 46.1982 4.92456 45.778 5.10894C44.9564 5.45909 44.1785 5.80924 43.3944 5.95779C43.0168 6.03276 42.6304 6.05134 42.2475 6.01296C41.8887 5.97785 41.5372 5.8877 41.2049 5.74558C40.6084 5.51045 40.1044 5.08248 39.7702 4.52747C39.633 4.28987 39.5492 4.02437 39.5247 3.74995C39.5002 3.47554 39.5356 3.199 39.6284 2.94013C39.7106 2.72684 39.8426 2.53713 40.013 2.38739C40.1834 2.23764 40.387 2.13237 40.6064 2.08067C40.7931 2.0317 40.989 2.0317 41.1757 2.08067C41.3411 2.12942 41.4917 2.21994 41.6136 2.34381C41.7164 2.44393 41.7987 2.56369 41.856 2.69624C41.9132 2.82878 41.9442 2.97151 41.9472 3.11626C41.9476 3.33819 41.8639 3.55172 41.7137 3.71258C41.604 3.83175 41.4561 3.90702 41.2966 3.92479C41.1914 3.93465 41.0856 3.9156 40.9901 3.86962C40.9317 3.84108 40.8788 3.80228 40.8337 3.75502C40.8118 3.73131 40.7929 3.70494 40.7774 3.67651L40.7649 3.65316L40.7795 3.67438C40.7973 3.70099 40.8183 3.72523 40.842 3.74653C40.8875 3.79004 40.9405 3.82458 40.9984 3.8484C41.0914 3.88723 41.1928 3.90041 41.2924 3.8866C41.4375 3.86267 41.5696 3.78754 41.6657 3.67438C41.7985 3.52139 41.8687 3.32241 41.8617 3.11839C41.8561 2.9857 41.8246 2.85548 41.7691 2.73527C41.7136 2.61506 41.6352 2.50725 41.5385 2.41809C41.4259 2.31047 41.2892 2.23251 41.1402 2.19102C40.9718 2.14859 40.7957 2.14859 40.6272 2.19102C40.4302 2.24166 40.2482 2.34039 40.097 2.47868C39.9459 2.61697 39.8301 2.79064 39.7597 2.98469C39.6801 3.22242 39.6527 3.47502 39.6794 3.7247C39.706 3.97437 39.7861 4.21507 39.914 4.42986C40.2343 4.94493 40.712 5.33863 41.2737 5.55034C41.5863 5.67924 41.9158 5.76075 42.2517 5.79226C42.615 5.82433 42.9809 5.80288 43.3381 5.7286C44.0868 5.58641 44.8438 5.24051 45.6695 4.87975C46.0985 4.68653 46.5403 4.52414 46.9916 4.39379C47.4828 4.25249 47.9941 4.19723 48.5035 4.23038C49.0599 4.26555 49.5925 4.47287 50.03 4.82458C50.2613 5.01162 50.4535 5.24398 50.5951 5.5079C50.7449 5.78555 50.817 6.0997 50.8036 6.41617C50.7958 6.5842 50.7524 6.74852 50.6764 6.89789C50.6371 6.97533 50.5872 7.04676 50.5283 7.1101C50.468 7.17573 50.3976 7.23092 50.3198 7.2735C50.1589 7.35606 49.9765 7.38501 49.7985 7.35627C49.7024 7.34227 49.6107 7.30637 49.5302 7.25125C49.4497 7.19613 49.3824 7.12322 49.3335 7.03795C49.2416 6.86581 49.2199 6.66386 49.273 6.47559C49.3186 6.29632 49.4108 6.13285 49.5399 6.00235C49.6677 5.87369 49.82 5.77305 49.9875 5.70662C50.155 5.6402 50.3341 5.60939 50.5137 5.61612C50.7701 5.61909 51.0222 5.68305 51.2499 5.80287C51.4796 5.92547 51.6726 6.10873 51.8087 6.3334C51.9402 6.55738 52.0199 6.80879 52.0419 7.06869C52.0639 7.32858 52.0277 7.59018 51.9359 7.83375C51.8468 8.07429 51.7146 8.29592 51.546 8.48736C51.3831 8.67733 51.1942 8.84243 50.985 8.97757C50.7805 9.11613 50.5589 9.22673 50.3261 9.3065C50.0955 9.38826 49.8572 9.44515 49.615 9.47627C49.093 9.54866 48.5619 9.5078 48.0566 9.35637C47.5512 9.20495 47.0831 8.9464 46.683 8.59771C46.5118 8.44023 46.3617 8.26041 46.2368 8.06293C46.1254 7.8869 46.0364 7.69723 45.9719 7.49845C45.8788 7.2078 45.8426 6.90137 45.8656 6.59655C45.882 6.32197 45.9651 6.05584 46.1075 5.82197C46.2501 5.59137 46.458 5.41012 46.7039 5.30205C46.9 5.21546 47.1133 5.17706 47.3267 5.18996C47.5401 5.20287 47.7475 5.26671 47.9321 5.37632C48.0559 5.44553 48.1624 5.54276 48.2434 5.66051C48.3244 5.77825 48.3777 5.91336 48.3992 6.05541C48.4159 6.25276 48.3534 6.34826 48.3033 6.35038C48.2533 6.35251 48.1949 6.26974 48.1073 6.16575C47.9987 6.03497 47.853 5.94158 47.6902 5.89837C47.5828 5.86986 47.4714 5.85982 47.3607 5.86866C47.2415 5.87976 47.1262 5.91744 47.0229 5.97901C46.9126 6.05353 46.8226 6.15528 46.7613 6.27477C46.7 6.39426 46.6695 6.5276 46.6726 6.66234Z" fill="#406882"/>
<path d="M43.6301 3.15659L43.6155 3.19054C43.6027 3.22528 43.595 3.26175 43.5926 3.29877C43.5916 3.37337 43.6081 3.44713 43.6407 3.51394C43.6734 3.58074 43.7212 3.63866 43.7802 3.68288C43.9757 3.81772 44.2151 3.8695 44.4475 3.82718C44.6263 3.80289 44.7979 3.74014 44.951 3.64309C45.1041 3.54605 45.2351 3.41694 45.3353 3.26436C45.4355 3.11177 45.5027 2.93922 45.5322 2.75817C45.5618 2.57713 45.5532 2.39174 45.5069 2.21436C45.452 1.98535 45.3408 1.77431 45.1837 1.60107C45.0114 1.41955 44.7959 1.28649 44.5581 1.21485C44.309 1.13831 44.045 1.12736 43.7907 1.18301C43.5291 1.24108 43.2839 1.35861 43.0733 1.5268C42.7488 1.80002 42.5176 2.17072 42.4127 2.58583C42.3078 3.00093 42.3347 3.43916 42.4894 3.83779C42.5918 4.09259 42.742 4.32467 42.9315 4.52111C43.284 4.88964 43.7513 5.12217 44.2536 5.17897C44.6758 5.21281 45.1004 5.16456 45.5048 5.03679C45.876 4.92857 46.1992 4.79911 46.4953 4.69725C46.9578 4.52453 47.4425 4.42089 47.9342 4.38954C48.1094 4.38954 48.247 4.38954 48.3408 4.38954H48.4826L48.3429 4.35771C48.2512 4.33861 48.1156 4.31527 47.9259 4.29617C47.4163 4.24534 46.9019 4.28048 46.4036 4.40016C46.0908 4.46806 45.753 4.55931 45.4005 4.6251C45.0403 4.70116 44.6698 4.71265 44.3057 4.65906C43.9325 4.59199 43.592 4.40004 43.3381 4.11367C43.2049 3.96873 43.1016 3.7981 43.0343 3.61185C42.9669 3.42559 42.937 3.2275 42.9461 3.02926C42.952 2.83292 42.9975 2.63992 43.0796 2.46216C43.1618 2.28441 43.2789 2.12568 43.4236 1.99579C43.5553 1.87731 43.7121 1.79151 43.8818 1.74511C44.0515 1.69872 44.2294 1.693 44.4017 1.7284C44.5599 1.76185 44.7075 1.83477 44.8312 1.94061C44.9459 2.04612 45.0321 2.17984 45.0815 2.32896C45.1315 2.46798 45.1494 2.61683 45.1338 2.76402C45.1183 2.91121 45.0697 3.05278 44.9918 3.17781C44.8507 3.39677 44.6367 3.55653 44.3891 3.6277C44.1996 3.69218 43.9931 3.6808 43.8115 3.59587C43.7557 3.56564 43.7077 3.52238 43.6714 3.46963C43.6352 3.41689 43.6117 3.35616 43.603 3.29241C43.5974 3.25798 43.5974 3.22285 43.603 3.18842L43.6301 3.15659Z" fill="#406882"/>
<path d="M47.1939 2.85949C47.2204 2.85194 47.2457 2.8405 47.269 2.82554C47.3386 2.78103 47.3949 2.7179 47.4316 2.64304C47.4931 2.51616 47.5028 2.36974 47.4588 2.23559C47.4233 2.14505 47.3668 2.06458 47.2942 2.00103C47.2216 1.93747 47.135 1.89272 47.0417 1.87058C46.9274 1.84345 46.808 1.84711 46.6955 1.8812C46.5724 1.92165 46.4623 1.99493 46.3765 2.09341C46.283 2.19544 46.2157 2.31935 46.1804 2.45417C46.146 2.59993 46.146 2.75192 46.1804 2.89769C46.2183 3.04872 46.2863 3.19019 46.3804 3.31324C46.4744 3.43629 46.5923 3.53828 46.7268 3.61284C46.9986 3.76261 47.3068 3.83034 47.6152 3.80808C47.9113 3.79747 48.1719 3.74866 48.4055 3.7423C48.6344 3.73442 48.8634 3.75509 49.0874 3.80384C49.4759 3.88974 49.8424 4.05744 50.1634 4.29617C50.3868 4.46219 50.5862 4.65935 50.7556 4.88188C50.8193 4.96484 50.8785 5.05127 50.9329 5.14078L50.9079 5.06438C50.8891 5.01133 50.8599 4.93705 50.8182 4.85217C50.6931 4.58232 50.5247 4.33559 50.3198 4.12216C50.0065 3.79683 49.6189 3.5555 49.1917 3.41974C48.9357 3.33789 48.6696 3.29358 48.4013 3.28816C48.1198 3.28816 47.8508 3.32848 47.5985 3.33697C47.3729 3.35546 47.1465 3.31377 46.9416 3.21601C46.8545 3.17406 46.7765 3.11494 46.7121 3.04209C46.6477 2.96923 46.5981 2.88408 46.5662 2.79158C46.537 2.71163 46.5273 2.62566 46.5378 2.54104C46.5483 2.45641 46.5788 2.37564 46.6267 2.30562C46.6642 2.24467 46.7163 2.19442 46.7782 2.15958C46.84 2.12475 46.9095 2.10648 46.9802 2.10648C47.0508 2.10648 47.1203 2.12475 47.1822 2.15958C47.244 2.19442 47.2961 2.24467 47.3336 2.30562C47.3851 2.40313 47.3985 2.51681 47.3712 2.62394C47.355 2.69704 47.3189 2.76398 47.2669 2.81705C47.2448 2.83489 47.2202 2.8492 47.1939 2.85949Z" fill="#406882"/>
<path d="M41.4509 7.06342C41.4736 7.08443 41.4938 7.10792 41.5114 7.13345C41.5615 7.2014 41.5918 7.28227 41.599 7.36688C41.6117 7.49174 41.5774 7.61685 41.5031 7.71704C41.4493 7.77571 41.3823 7.82014 41.3079 7.84646C41.2335 7.87278 41.1538 7.8802 41.0759 7.86807C40.998 7.85594 40.9242 7.82463 40.8609 7.77685C40.7976 7.72908 40.7467 7.66629 40.7127 7.59395C40.6721 7.50858 40.6507 7.41505 40.6502 7.3202C40.653 7.22235 40.678 7.1265 40.7232 7.04008C40.8276 6.84403 41.0036 6.69767 41.2132 6.63263C41.4595 6.55934 41.72 6.55131 41.9702 6.60929C42.2496 6.66234 42.5436 6.75783 42.8606 6.79816C43.1613 6.83859 43.4662 6.8343 43.7656 6.78542C44.2673 6.70638 44.7418 6.50144 45.1461 6.18911C45.4104 5.98504 45.6394 5.73761 45.8239 5.45697C45.8864 5.35935 45.9323 5.27871 45.9594 5.22566L46.0011 5.14078L45.9406 5.2108C45.901 5.25749 45.8405 5.32328 45.7592 5.4018C45.5329 5.62282 45.2774 5.81066 45.0002 5.95991C44.6021 6.17326 44.1645 6.29906 43.7156 6.32917C43.4561 6.34502 43.1957 6.32935 42.9398 6.28248C42.6792 6.23579 42.3956 6.13605 42.0661 6.07027C41.7238 5.99381 41.3672 6.0181 41.038 6.1403C40.8749 6.2009 40.7259 6.29541 40.6006 6.4178C40.4753 6.5402 40.3764 6.6878 40.3103 6.85121C40.2476 7.00773 40.2232 7.17744 40.2394 7.34567C40.2576 7.50305 40.3127 7.65369 40.3999 7.78494C40.481 7.90824 40.5925 8.00775 40.7232 8.07355C40.8435 8.13095 40.9765 8.1551 41.1089 8.14358C41.2183 8.1363 41.3243 8.10195 41.4177 8.04352C41.5111 7.98509 41.5891 7.90434 41.6449 7.80829C41.6805 7.73739 41.702 7.65999 41.7081 7.58059C41.7142 7.50118 41.7047 7.42134 41.6803 7.34567C41.6524 7.25532 41.5996 7.17503 41.5281 7.11435C41.5043 7.09453 41.4784 7.07745 41.4509 7.06342Z" fill="#406882"/>
<path d="M42.1057 2.64728L42.089 2.5624C42.089 2.50723 42.0598 2.43083 42.0348 2.33533C41.9654 2.10027 41.8673 1.87498 41.7429 1.66474C41.6077 1.43777 41.4452 1.22888 41.2591 1.04296C41.1515 0.93763 41.0365 0.84046 40.915 0.752229C40.8604 0.710116 40.7968 0.681752 40.7294 0.669463C40.6753 0.656601 40.6188 0.660296 40.5668 0.680077C40.5222 0.695849 40.4819 0.722149 40.4493 0.756827C40.4167 0.791505 40.3926 0.83357 40.3791 0.879558C40.3622 0.924866 40.3547 0.973227 40.357 1.02163C40.3593 1.07002 40.3714 1.11742 40.3926 1.16084C40.4137 1.20426 40.4434 1.24277 40.4798 1.27397C40.5163 1.30517 40.5586 1.3284 40.6043 1.34218C40.7189 1.3818 40.831 1.42858 40.94 1.48224C41.1416 1.5858 41.33 1.71408 41.501 1.86422C41.6705 2.01549 41.8204 2.18806 41.9472 2.37778C41.9973 2.4563 42.039 2.52208 42.064 2.57089L42.1057 2.64728Z" fill="#406882"/>
<path d="M42.2434 2.36079C42.2434 2.36079 42.2559 2.33321 42.2746 2.2844C42.3012 2.21535 42.3228 2.14442 42.3393 2.07219C42.3873 1.84133 42.3972 1.60393 42.3685 1.36977C42.336 1.12143 42.2773 0.877378 42.1933 0.641872C42.1224 0.442392 42.0619 0.300215 42.0452 0.262017C42.0299 0.213007 42.0033 0.168415 41.9676 0.131922C41.932 0.0954295 41.8883 0.0680808 41.8403 0.0521227C41.7922 0.0361645 41.7411 0.0320521 41.6912 0.0401352C41.6413 0.0482183 41.5939 0.0682606 41.5531 0.0986089C41.5111 0.123827 41.4752 0.158411 41.4481 0.199761C41.4211 0.241111 41.4036 0.288157 41.397 0.337367C41.3904 0.386577 41.3948 0.436673 41.4099 0.483898C41.425 0.531123 41.4505 0.574248 41.4843 0.610041C41.7133 0.866383 41.9088 1.15168 42.0661 1.45889C42.1586 1.65174 42.2185 1.85907 42.2434 2.07219C42.247 2.14288 42.247 2.21371 42.2434 2.2844V2.36079Z" fill="#406882"/>
<path d="M42.723 1.83026C42.723 1.83026 42.7793 1.75599 42.8585 1.63927C42.9579 1.49048 43.0465 1.33443 43.1234 1.1724C43.2534 0.901606 43.3535 0.616898 43.4216 0.32355C43.4695 0.0986045 43.2798 -0.0117437 43.0921 0.000989081C42.9044 0.0137218 42.7355 0.113463 42.7647 0.293843C42.8105 0.557837 42.8294 0.825939 42.821 1.09388C42.813 1.34209 42.7801 1.58882 42.723 1.83026Z" fill="#406882"/>
<path d="M22.0802 19.9083C21.9453 19.9083 21.8261 19.8763 21.7226 19.8122C21.6237 19.7527 21.527 19.6428 21.4325 19.4826C21.338 19.3178 21.2323 19.0821 21.1154 18.7754C21.0344 18.5649 20.9602 18.3841 20.8927 18.233C20.8253 18.0774 20.7511 17.9492 20.6701 17.8485C20.5891 17.7478 20.4924 17.6746 20.38 17.6288C20.2675 17.5784 20.1281 17.5533 19.9617 17.5533H19.5636V19.1805C19.5636 19.2904 19.5771 19.3682 19.6041 19.414C19.6311 19.4552 19.6895 19.4849 19.7795 19.5032L20.1776 19.565V19.8122H18.4503V19.565L18.8552 19.5032C18.9496 19.4849 19.0081 19.4506 19.0306 19.4002C19.0531 19.3499 19.0643 19.2675 19.0643 19.153V15.6376C19.0643 15.5278 19.0508 15.4522 19.0238 15.411C19.0013 15.3653 18.9406 15.3332 18.8417 15.3149L18.4503 15.2531V14.9991H20.1776V15.2531L19.766 15.3149C19.6805 15.3287 19.6243 15.363 19.5973 15.4179C19.5748 15.4683 19.5636 15.5507 19.5636 15.6651V17.2649C19.712 17.2603 19.829 17.2557 19.9144 17.2512C20.0044 17.242 20.0786 17.2306 20.1371 17.2168C20.1956 17.1985 20.2473 17.1756 20.2923 17.1482C20.4002 17.0841 20.4947 17.0131 20.5756 16.9353C20.6566 16.8529 20.7308 16.7454 20.7983 16.6126C20.8703 16.4753 20.9445 16.2922 21.0209 16.0633C21.1109 15.7887 21.1986 15.5713 21.2841 15.411C21.3695 15.2463 21.464 15.1273 21.5674 15.054C21.6709 14.9762 21.7968 14.9373 21.9453 14.9373C22.0397 14.9373 22.1207 14.9579 22.1882 14.9991C22.2601 15.0357 22.3164 15.0861 22.3568 15.1501C22.3973 15.2142 22.4176 15.2875 22.4176 15.3699C22.4176 15.4477 22.3996 15.5209 22.3636 15.5896C22.3321 15.6536 22.2871 15.7063 22.2286 15.7475C22.1747 15.7887 22.1139 15.8093 22.0465 15.8093C21.9475 15.8093 21.8688 15.7772 21.8103 15.7132C21.7519 15.6445 21.7024 15.5507 21.6619 15.4316C21.6214 15.4683 21.5854 15.5163 21.5539 15.5758C21.5225 15.6308 21.4865 15.7154 21.446 15.8299C21.4055 15.9397 21.347 16.1045 21.2706 16.3242C21.2166 16.489 21.1514 16.6401 21.0749 16.7774C21.0029 16.9101 20.913 17.0269 20.805 17.1276C20.6971 17.2237 20.5599 17.3015 20.3935 17.361V17.3816C20.5959 17.3999 20.7645 17.4526 20.8995 17.5395C21.0389 17.6219 21.1604 17.7409 21.2638 17.8966C21.3673 18.0476 21.4662 18.2421 21.5607 18.4802C21.6327 18.6633 21.6956 18.8212 21.7496 18.9539C21.8081 19.0867 21.8621 19.1965 21.9115 19.2835C21.9655 19.3705 22.0217 19.4346 22.0802 19.4758C22.1432 19.5169 22.2129 19.5375 22.2894 19.5375C22.3568 19.5375 22.4198 19.5307 22.4783 19.5169C22.5368 19.4986 22.5885 19.478 22.6335 19.4552L22.6942 19.6543C22.6042 19.7412 22.5075 19.8053 22.4041 19.8465C22.3051 19.8877 22.1972 19.9083 22.0802 19.9083Z" fill="#406882"/>
<path d="M26.1588 19.9014C25.8709 19.9014 25.6056 19.8557 25.3627 19.7641C25.1198 19.6726 24.9264 19.5353 24.7824 19.3522C24.643 19.1645 24.5733 18.9288 24.5733 18.645C24.5733 18.4756 24.6048 18.3062 24.6677 18.1369C24.7307 17.9675 24.8409 17.805 24.9983 17.6494C25.1603 17.4937 25.3874 17.361 25.6798 17.2512C25.4549 17.1413 25.2772 17.0291 25.1468 16.9147C25.0208 16.7957 24.9309 16.6698 24.8769 16.5371C24.8229 16.3998 24.7959 16.251 24.7959 16.0908C24.7959 15.8985 24.8454 15.7132 24.9444 15.5346C25.0433 15.3515 25.1962 15.2005 25.4032 15.0815C25.6146 14.9625 25.8799 14.903 26.1993 14.903C26.4872 14.903 26.7323 14.9487 26.9347 15.0403C27.1371 15.1318 27.2923 15.2554 27.4003 15.411C27.5082 15.5621 27.5622 15.7338 27.5622 15.926C27.5622 16.1274 27.5217 16.3059 27.4407 16.4616C27.3643 16.6126 27.2631 16.7476 27.1371 16.8667C27.0112 16.9857 26.874 17.0932 26.7256 17.1894C26.9865 17.2992 27.1934 17.4228 27.3463 17.5601C27.4992 17.6974 27.6072 17.8439 27.6701 17.9995C27.7331 18.1506 27.7646 18.3154 27.7646 18.4939C27.7646 18.7228 27.7174 18.9242 27.6229 19.0981C27.533 19.2721 27.4115 19.4185 27.2586 19.5375C27.1056 19.6566 26.9325 19.7481 26.7391 19.8122C26.5501 19.8717 26.3567 19.9014 26.1588 19.9014ZM26.1926 19.5581C26.404 19.5581 26.5861 19.5192 26.7391 19.4414C26.8965 19.3636 27.0202 19.2537 27.1101 19.1119C27.2001 18.9654 27.2451 18.7891 27.2451 18.5832C27.2451 18.423 27.2181 18.2856 27.1641 18.1712C27.1101 18.0522 27.0292 17.9492 26.9212 17.8622C26.8133 17.7707 26.6783 17.6883 26.5164 17.6151C26.359 17.5418 26.1746 17.4709 25.9632 17.4022C25.6798 17.5441 25.4616 17.7135 25.3087 17.9103C25.1603 18.1025 25.0861 18.3291 25.0861 18.59C25.0861 18.7914 25.131 18.9654 25.221 19.1119C25.3154 19.2537 25.4459 19.3636 25.6123 19.4414C25.7787 19.5192 25.9722 19.5581 26.1926 19.5581ZM26.4152 17.0726C26.6086 16.9216 26.766 16.7591 26.8875 16.5851C27.0134 16.4066 27.0764 16.219 27.0764 16.0221C27.0764 15.8436 27.0359 15.6971 26.955 15.5827C26.874 15.4637 26.7638 15.3744 26.6244 15.3149C26.4894 15.2554 26.3365 15.2257 26.1656 15.2257C26.0081 15.2257 25.862 15.2531 25.727 15.3081C25.5921 15.363 25.4819 15.4477 25.3964 15.5621C25.3154 15.672 25.275 15.8161 25.275 15.9947C25.275 16.132 25.3042 16.2601 25.3627 16.3792C25.4211 16.4982 25.5313 16.6149 25.6933 16.7293C25.8597 16.8392 26.1003 16.9536 26.4152 17.0726Z" fill="#406882"/>
<path d="M30.1249 19.9014C29.7606 19.9014 29.4524 19.7962 29.2006 19.5856C28.9532 19.375 28.7665 19.089 28.6406 18.7274C28.5146 18.3657 28.4516 17.9538 28.4516 17.4915C28.4516 17.0108 28.4989 16.6057 28.5933 16.2762C28.6878 15.942 28.816 15.6742 28.9779 15.4728C29.1443 15.2714 29.331 15.1273 29.5379 15.0403C29.7448 14.9487 29.963 14.903 30.1924 14.903C30.4892 14.903 30.7614 14.9899 31.0087 15.1639C31.2561 15.3378 31.454 15.6033 31.6025 15.9603C31.7554 16.3128 31.8319 16.7659 31.8319 17.3198C31.8319 17.8874 31.7577 18.3635 31.6092 18.7479C31.4608 19.1279 31.2584 19.4162 31.002 19.6131C30.7456 19.8053 30.4532 19.9014 30.1249 19.9014ZM30.1721 19.5375C30.352 19.5375 30.5117 19.4941 30.6512 19.4071C30.7951 19.3155 30.9143 19.1828 31.0087 19.0089C31.1077 18.8303 31.1819 18.6106 31.2314 18.3497C31.2809 18.0842 31.3056 17.7753 31.3056 17.4228C31.3056 17.0658 31.2809 16.7522 31.2314 16.4822C31.1864 16.2121 31.1144 15.9878 31.0155 15.8093C30.921 15.6262 30.7996 15.4889 30.6512 15.3973C30.5072 15.3012 30.3363 15.2531 30.1384 15.2531C29.9675 15.2531 29.81 15.2943 29.6661 15.3767C29.5222 15.4545 29.3985 15.5781 29.295 15.7475C29.1916 15.9123 29.1106 16.1297 29.0521 16.3998C28.9981 16.6698 28.9712 16.9925 28.9712 17.3679C28.9712 17.6883 28.9959 17.9812 29.0454 18.2467C29.0948 18.5122 29.1668 18.7411 29.2613 18.9333C29.3602 19.1256 29.4862 19.2743 29.6391 19.3796C29.792 19.4849 29.9697 19.5375 30.1721 19.5375Z" fill="#406882"/>
<path d="M32.5942 18.027V17.6082H34.2809V18.027H32.5942Z" fill="#406882"/>
<path d="M35.271 19.9014C35.1856 19.9014 35.1069 19.8831 35.0349 19.8465C34.9674 19.8145 34.9112 19.7664 34.8662 19.7023C34.8213 19.6337 34.7988 19.5559 34.7988 19.4689C34.7988 19.3865 34.8145 19.3133 34.846 19.2492C34.882 19.1805 34.927 19.1279 34.9809 19.0913C35.0394 19.0501 35.1069 19.0295 35.1833 19.0295C35.2553 19.0295 35.3228 19.0546 35.3857 19.105C35.4532 19.1508 35.5207 19.2354 35.5882 19.359C35.6646 19.2858 35.7321 19.1782 35.7906 19.0363C35.8535 18.8944 35.9053 18.7159 35.9457 18.5008C35.9907 18.2856 36.0267 18.0362 36.0537 17.7524C36.0852 17.4686 36.1077 17.1482 36.1212 16.7911C36.1347 16.4341 36.1414 16.0427 36.1414 15.617C36.1414 15.5163 36.1212 15.4477 36.0807 15.411C36.0447 15.3699 35.9795 15.3401 35.885 15.3218L35.5409 15.2531V14.9991H39.2585V15.2531L38.8739 15.3149C38.784 15.3332 38.7255 15.3676 38.6985 15.4179C38.676 15.4683 38.6648 15.5507 38.6648 15.6651V19.1805C38.6648 19.2904 38.6783 19.3682 38.7053 19.414C38.7323 19.4552 38.793 19.4849 38.8874 19.5032L39.2585 19.565V19.8122H37.5718V19.565L37.9563 19.5032C38.0508 19.4849 38.1093 19.4506 38.1318 19.4002C38.1543 19.3499 38.1655 19.2675 38.1655 19.153V15.3424H36.499C36.499 15.466 36.4968 15.617 36.4923 15.7955C36.4878 15.9741 36.481 16.1617 36.472 16.3586C36.463 16.5508 36.454 16.7408 36.445 16.9284C36.436 17.1115 36.427 17.2717 36.418 17.4091C36.4 17.7615 36.3663 18.0751 36.3168 18.3497C36.2719 18.6198 36.2134 18.8532 36.1414 19.0501C36.0739 19.2469 35.9952 19.4071 35.9053 19.5307C35.8153 19.6543 35.7164 19.7481 35.6084 19.8122C35.5005 19.8717 35.388 19.9014 35.271 19.9014Z" fill="#406882"/>
<path d="M40.2652 19.8122V19.565L40.6566 19.5032C40.742 19.4895 40.7983 19.4597 40.8252 19.414C40.8522 19.3682 40.8657 19.2812 40.8657 19.153V15.6445C40.8657 15.5301 40.8522 15.4522 40.8252 15.411C40.7983 15.3653 40.7375 15.3332 40.6431 15.3149L40.2652 15.2531V14.9991H43.2744L43.5173 16.0908L43.2474 16.1732C43.1799 15.9809 43.117 15.8276 43.0585 15.7132C43 15.5987 42.9326 15.514 42.8561 15.4591C42.7796 15.3996 42.6874 15.3607 42.5795 15.3424C42.4715 15.3241 42.3366 15.3149 42.1746 15.3149H41.365V17.1894H42.1409C42.2938 17.1894 42.4063 17.1802 42.4783 17.1619C42.5502 17.139 42.6042 17.0887 42.6402 17.0108C42.6762 16.933 42.7122 16.8071 42.7481 16.6332L42.991 16.5989V18.0682L42.7481 18.1094C42.7211 17.9355 42.6874 17.8073 42.6469 17.7249C42.6109 17.6425 42.5502 17.5899 42.4648 17.567C42.3838 17.5441 42.2601 17.5327 42.0937 17.5327H41.365V19.4964H42.4243C42.5817 19.4964 42.7122 19.4849 42.8156 19.462C42.9191 19.4346 43.0045 19.3888 43.072 19.3247C43.144 19.256 43.2024 19.1645 43.2474 19.0501C43.2969 18.931 43.3396 18.78 43.3756 18.5969H43.659L43.5038 19.8122H40.2652Z" fill="#406882"/>
<path d="M45.488 19.8122V19.565L46.0345 19.4826C46.1065 19.4689 46.1605 19.4414 46.1965 19.4002C46.237 19.3545 46.2572 19.2698 46.2572 19.1462V15.3149H45.7782C45.6162 15.3149 45.4813 15.3287 45.3733 15.3561C45.2654 15.379 45.1732 15.4294 45.0967 15.5072C45.0203 15.585 44.9505 15.6971 44.8876 15.8436C44.8246 15.9855 44.7549 16.1778 44.6784 16.4204L44.4085 16.3517L44.6717 14.9991H48.3488L48.6052 16.3517L48.3353 16.4204C48.2588 16.1778 48.1891 15.9855 48.1261 15.8436C48.0631 15.6971 47.9934 15.585 47.917 15.5072C47.8405 15.4294 47.7483 15.379 47.6403 15.3561C47.5324 15.3287 47.3997 15.3149 47.2423 15.3149H46.7565V19.1736C46.7565 19.2835 46.77 19.359 46.797 19.4002C46.8284 19.4368 46.8914 19.4643 46.9859 19.4826L47.5189 19.565V19.8122H45.488Z" fill="#406882"/>
<path d="M49.4235 19.8122V19.565L49.8148 19.5032C49.9093 19.4849 49.9677 19.4506 49.9902 19.4002C50.0127 19.3499 50.024 19.2675 50.024 19.153V15.6376C50.024 15.5278 50.0105 15.4522 49.9835 15.411C49.961 15.3653 49.9003 15.3332 49.8013 15.3149L49.4235 15.2531V14.9991H51.117V15.2531L50.7257 15.3149C50.6402 15.3332 50.584 15.3676 50.557 15.4179C50.5345 15.4683 50.5232 15.5507 50.5232 15.6651V18.4527L52.9791 15.9397V15.6376C52.9791 15.5278 52.9657 15.4522 52.9387 15.411C52.9162 15.3653 52.8555 15.3332 52.7565 15.3149L52.3854 15.2531V14.9991H54.0722V15.2531L53.6876 15.3149C53.5976 15.3332 53.5391 15.3676 53.5122 15.4179C53.4897 15.4683 53.4784 15.5507 53.4784 15.6651V19.1805C53.4784 19.2904 53.4919 19.3682 53.5189 19.414C53.5459 19.4552 53.6066 19.4849 53.7011 19.5032L54.0722 19.565V19.8122H52.3854V19.565L52.77 19.5032C52.8644 19.4849 52.9229 19.4506 52.9454 19.4002C52.9679 19.3499 52.9791 19.2675 52.9791 19.153V16.4066L50.5232 18.9127V19.1805C50.5232 19.2904 50.5367 19.3682 50.5637 19.414C50.5907 19.4552 50.6492 19.4849 50.7391 19.5032L51.117 19.565V19.8122H49.4235Z" fill="#406882"/>
<path d="M59.5262 19.9083C59.1078 19.9083 58.748 19.803 58.4466 19.5925C58.1498 19.3819 57.9204 19.0958 57.7584 18.7342C57.601 18.3726 57.52 17.9652 57.5155 17.5121H56.1796V19.1805C56.1796 19.2904 56.1931 19.3682 56.2201 19.414C56.2471 19.4552 56.3056 19.4849 56.3955 19.5032L56.7734 19.565V19.8122H55.0799V19.565L55.4712 19.5032C55.5657 19.4849 55.6241 19.4506 55.6466 19.4002C55.6691 19.3499 55.6804 19.2675 55.6804 19.153V15.6376C55.6804 15.5278 55.6669 15.4522 55.6399 15.411C55.6174 15.3653 55.5567 15.3332 55.4577 15.3149L55.0799 15.2531V14.9991H56.7734V15.2531L56.3821 15.3149C56.2966 15.3332 56.2404 15.3676 56.2134 15.4179C56.1909 15.4683 56.1796 15.5507 56.1796 15.6651V17.1688H57.5223C57.5493 16.7934 57.6168 16.4638 57.7247 16.18C57.8372 15.8962 57.9856 15.6605 58.17 15.4728C58.3544 15.2806 58.5658 15.1387 58.8042 15.0471C59.0426 14.951 59.299 14.903 59.5734 14.903C59.8657 14.903 60.1311 14.9556 60.3695 15.0609C60.6124 15.1662 60.8238 15.3218 61.0037 15.5278C61.1837 15.7292 61.3209 15.9809 61.4153 16.283C61.5143 16.5806 61.5637 16.9193 61.5637 17.2992C61.5637 17.7112 61.5143 18.0797 61.4153 18.4046C61.3209 18.7251 61.1837 18.9974 61.0037 19.2217C60.8238 19.446 60.6079 19.6176 60.356 19.7367C60.1086 19.8511 59.832 19.9083 59.5262 19.9083ZM59.5801 19.5307C59.8095 19.5307 60.0142 19.4849 60.1941 19.3934C60.374 19.2972 60.527 19.1599 60.6529 18.9814C60.7788 18.8029 60.8755 18.5809 60.943 18.3154C61.0105 18.0453 61.0442 17.7364 61.0442 17.3885C61.0442 17.0497 61.0105 16.7499 60.943 16.489C60.8755 16.2235 60.7743 16.0015 60.6394 15.823C60.509 15.6399 60.3493 15.5026 60.1604 15.411C59.9715 15.3195 59.7533 15.2737 59.5059 15.2737C59.281 15.2737 59.0764 15.3172 58.8919 15.4042C58.712 15.4912 58.5568 15.6239 58.4264 15.8024C58.2959 15.9764 58.197 16.1961 58.1295 16.4616C58.0621 16.7225 58.0283 17.0291 58.0283 17.3816C58.0283 17.702 58.0621 17.995 58.1295 18.2605C58.2015 18.5259 58.3027 18.7525 58.4331 18.9402C58.5681 19.1279 58.7323 19.2743 58.9257 19.3796C59.1191 19.4803 59.3372 19.5307 59.5801 19.5307Z" fill="#406882"/>
<path d="M0 27.9043C0 27.7689 0.107883 27.6591 0.240964 27.6591H4.57831C4.71139 27.6591 4.81928 27.7689 4.81928 27.9043C4.81928 28.0398 4.71139 28.1495 4.57831 28.1495H0.240964C0.107883 28.1495 0 28.0398 0 27.9043Z" fill="#406882"/>
<path d="M7.80179 31.5826V31.0617L8.22685 30.9999C8.34829 30.9764 8.42347 30.9323 8.45239 30.8675C8.48131 30.7969 8.49576 30.688 8.49576 30.5409V26.383C8.49576 26.2594 8.47841 26.1653 8.44372 26.1005C8.4148 26.0299 8.33673 25.9828 8.2095 25.9593L7.80179 25.8975V25.3766H12.2693L12.5555 27.0627L11.9309 27.2216C11.85 26.9627 11.769 26.7538 11.6881 26.5949C11.6129 26.4301 11.529 26.3036 11.4365 26.2153C11.344 26.1211 11.2312 26.0593 11.0982 26.0299C10.9709 25.9946 10.8119 25.9769 10.6211 25.9769H9.71022V27.9897C9.83167 27.9779 9.956 27.9691 10.0832 27.9632C10.2105 27.9514 10.3608 27.9485 10.5343 27.9543C10.8582 27.9543 11.1589 27.9897 11.4365 28.0603C11.7199 28.1309 11.9685 28.2368 12.1825 28.3781C12.3965 28.5134 12.5613 28.69 12.677 28.9077C12.7984 29.1255 12.8591 29.3874 12.8591 29.6934C12.8591 30.0936 12.7608 30.435 12.5642 30.7174C12.3676 30.9999 12.0755 31.2147 11.6881 31.3619C11.3064 31.509 10.8379 31.5826 10.2828 31.5826H7.80179ZM10.2567 30.9999C10.5343 30.9999 10.7743 30.9558 10.9767 30.8675C11.1791 30.7792 11.3324 30.6439 11.4365 30.4614C11.5464 30.279 11.6013 30.0465 11.6013 29.764C11.6013 29.3285 11.4799 29.0196 11.237 28.8371C10.9941 28.6488 10.6673 28.5546 10.2567 28.5546C10.1526 28.5546 10.0543 28.5576 9.96179 28.5635C9.87504 28.5693 9.79119 28.5782 9.71022 28.5899V30.9558C9.7854 30.9734 9.87215 30.9852 9.97046 30.9911C10.0746 30.997 10.17 30.9999 10.2567 30.9999Z" fill="#406882"/>
<path d="M14.8256 31.7238C14.5943 31.7238 14.4092 31.6561 14.2704 31.5208C14.1316 31.3854 14.0622 31.2118 14.0622 30.9999C14.0622 30.7881 14.1316 30.6145 14.2704 30.4791C14.4092 30.3437 14.5943 30.2761 14.8256 30.2761C15.0627 30.2761 15.2478 30.3437 15.3808 30.4791C15.5196 30.6086 15.589 30.7792 15.589 30.9911C15.589 31.2089 15.5196 31.3854 15.3808 31.5208C15.242 31.6561 15.0569 31.7238 14.8256 31.7238Z" fill="#406882"/>
<path d="M19.5758 31.7062C18.9801 31.7062 18.4625 31.5767 18.023 31.3177C17.5835 31.0529 17.2423 30.6821 16.9994 30.2054C16.7623 29.7228 16.6437 29.149 16.6437 28.484C16.6437 28.0014 16.7103 27.563 16.8433 27.1687C16.9821 26.7744 17.1758 26.436 17.4245 26.1535C17.6789 25.8651 17.9796 25.6444 18.3266 25.4914C18.6794 25.3325 19.0727 25.253 19.5064 25.253C19.8071 25.253 20.076 25.3001 20.3131 25.3943C20.5503 25.4826 20.7556 25.6091 20.929 25.7739L21.0245 25.2442H21.5103L21.8486 27.3629L21.2674 27.4865C21.1517 27.1216 21.0129 26.8273 20.851 26.6037C20.689 26.3742 20.504 26.2094 20.2958 26.1093C20.0876 26.0034 19.8476 25.9504 19.5758 25.9504C19.2057 25.9504 18.8992 26.0446 18.6563 26.2329C18.4134 26.4213 18.2283 26.6979 18.1011 27.0627C17.9796 27.4276 17.9189 27.872 17.9189 28.3957C17.9189 28.8018 17.9652 29.1608 18.0577 29.4727C18.156 29.7846 18.289 30.0465 18.4568 30.2584C18.6303 30.4703 18.8327 30.6321 19.064 30.7439C19.2953 30.8499 19.544 30.9028 19.81 30.9028C20.0587 30.9028 20.2871 30.8675 20.4953 30.7969C20.7035 30.7263 20.8915 30.6233 21.0592 30.4879C21.2327 30.3526 21.3859 30.1937 21.5189 30.0112L21.9527 30.4438C21.8428 30.6145 21.7098 30.7763 21.5536 30.9293C21.3975 31.0823 21.2182 31.2177 21.0158 31.3354C20.8134 31.4531 20.5907 31.5443 20.3478 31.6091C20.1107 31.6738 19.8534 31.7062 19.5758 31.7062Z" fill="#406882"/>
<path d="M23.9574 31.7238C23.7261 31.7238 23.541 31.6561 23.4022 31.5208C23.2634 31.3854 23.194 31.2118 23.194 30.9999C23.194 30.7881 23.2634 30.6145 23.4022 30.4791C23.541 30.3437 23.7261 30.2761 23.9574 30.2761C24.1945 30.2761 24.3796 30.3437 24.5126 30.4791C24.6514 30.6086 24.7208 30.7792 24.7208 30.9911C24.7208 31.2089 24.6514 31.3854 24.5126 31.5208C24.3738 31.6561 24.1887 31.7238 23.9574 31.7238Z" fill="#406882"/>
<path d="M27.9499 31.5826V31.0617L28.375 30.9999C28.4849 30.9764 28.5572 30.9381 28.5919 30.8852C28.6266 30.8263 28.6439 30.7116 28.6439 30.5409V26.3742C28.6439 26.227 28.6237 26.127 28.5832 26.074C28.5485 26.0152 28.4733 25.9769 28.3576 25.9593L27.9499 25.8975V25.3766H32.2786L32.5822 26.9303L31.975 27.0627C31.8998 26.8391 31.8246 26.6567 31.7494 26.5154C31.68 26.3742 31.5991 26.2653 31.5066 26.1888C31.4198 26.1064 31.3099 26.0505 31.1769 26.0211C31.0439 25.9916 30.882 25.9769 30.6911 25.9769H29.8584V28.1221H30.4656C30.6333 28.1221 30.7576 28.1074 30.8386 28.0779C30.9253 28.0485 30.989 27.9838 31.0294 27.8837C31.0757 27.7837 31.122 27.6307 31.1682 27.4247L31.6454 27.3805V29.4021L31.1596 29.4816C31.1306 29.2697 31.0931 29.1137 31.0468 29.0137C31.0063 28.9077 30.9398 28.8401 30.8473 28.8106C30.7605 28.7753 30.6304 28.7577 30.4569 28.7577H29.8584V30.9823H30.8907C31.0931 30.9823 31.2579 30.9646 31.3851 30.9293C31.5181 30.894 31.628 30.8351 31.7147 30.7528C31.8015 30.6645 31.8767 30.5438 31.9403 30.3908C32.0039 30.2378 32.0646 30.0465 32.1225 29.817H32.747L32.5302 31.5826H27.9499Z" fill="#406882"/>
<path d="M34.0293 31.6973C33.8963 31.6973 33.769 31.6679 33.6476 31.6091C33.5319 31.5561 33.4336 31.4766 33.3526 31.3707C33.2775 31.2648 33.2399 31.1353 33.2399 30.9823C33.2399 30.8469 33.2659 30.7233 33.3179 30.6115C33.37 30.4997 33.4394 30.4114 33.5261 30.3467C33.6187 30.2761 33.7285 30.2407 33.8558 30.2407C33.9657 30.2407 34.0697 30.2849 34.1681 30.3732C34.2722 30.4556 34.3734 30.5703 34.4717 30.7174C34.5816 30.5997 34.6741 30.4291 34.7493 30.2054C34.8302 29.9759 34.8967 29.714 34.9488 29.4198C35.0008 29.1196 35.0413 28.7989 35.0702 28.4575C35.0991 28.1162 35.1194 27.769 35.131 27.4159C35.1425 27.0569 35.1483 26.7067 35.1483 26.3653C35.1483 26.2418 35.1223 26.1535 35.0702 26.1005C35.0182 26.0475 34.9285 26.0063 34.8013 25.9769L34.411 25.8975V25.3766H39.3729V25.8975L38.9478 25.9593C38.8322 25.9828 38.757 26.0269 38.7223 26.0917C38.6934 26.1564 38.6789 26.2624 38.6789 26.4095V30.5762C38.6789 30.7233 38.6963 30.8234 38.731 30.8763C38.7657 30.9293 38.8437 30.9705 38.9652 30.9999L39.3729 31.0617V31.5826H36.7878V31.0617L37.2042 30.9999C37.3199 30.9764 37.3922 30.9323 37.4211 30.8675C37.4558 30.7969 37.4731 30.688 37.4731 30.5409V26.0652H35.8423C35.8423 26.2006 35.8365 26.3742 35.8249 26.586C35.8191 26.7979 35.8105 27.0274 35.7989 27.2746C35.7873 27.5159 35.7729 27.7513 35.7555 27.9808C35.7382 28.2104 35.7208 28.4104 35.7035 28.5811C35.6688 28.9754 35.6196 29.3374 35.556 29.6669C35.4924 29.9906 35.4114 30.279 35.3131 30.5321C35.2206 30.7851 35.1107 30.9999 34.9835 31.1765C34.8563 31.3472 34.7117 31.4766 34.5497 31.5649C34.3878 31.6532 34.2143 31.6973 34.0293 31.6973Z" fill="#406882"/>
<path d="M40.4957 31.5826V31.0617L40.9208 30.9999C41.0307 30.9764 41.1029 30.9381 41.1376 30.8852C41.1723 30.8263 41.1897 30.7116 41.1897 30.5409V26.3742C41.1897 26.227 41.1694 26.127 41.129 26.074C41.0943 26.0152 41.0191 25.9769 40.9034 25.9593L40.4957 25.8975V25.3766H44.8244L45.128 26.9303L44.5208 27.0627C44.4456 26.8391 44.3704 26.6567 44.2952 26.5154C44.2258 26.3742 44.1449 26.2653 44.0523 26.1888C43.9656 26.1064 43.8557 26.0505 43.7227 26.0211C43.5897 25.9916 43.4278 25.9769 43.2369 25.9769H42.4041V28.1221H43.0114C43.1791 28.1221 43.3034 28.1074 43.3844 28.0779C43.4711 28.0485 43.5347 27.9838 43.5752 27.8837C43.6215 27.7837 43.6678 27.6307 43.714 27.4247L44.1911 27.3805V29.4021L43.7053 29.4816C43.6764 29.2697 43.6388 29.1137 43.5926 29.0137C43.5521 28.9077 43.4856 28.8401 43.3931 28.8106C43.3063 28.7753 43.1762 28.7577 43.0027 28.7577H42.4041V30.9823H43.4364C43.6388 30.9823 43.8037 30.9646 43.9309 30.9293C44.0639 30.894 44.1738 30.8351 44.2605 30.7528C44.3473 30.6645 44.4225 30.5438 44.4861 30.3908C44.5497 30.2378 44.6104 30.0465 44.6682 29.817H45.2928L45.076 31.5826H40.4957Z" fill="#406882"/>
<path d="M46.3198 31.5826V31.0617L46.7449 30.9999C46.8663 30.9764 46.9415 30.9323 46.9704 30.8675C46.9993 30.7969 47.0138 30.688 47.0138 30.5409V26.383C47.0138 26.2359 46.9964 26.1358 46.9618 26.0829C46.9328 26.024 46.8548 25.9828 46.7275 25.9593L46.3198 25.8975V25.3766H52.6784V25.8975L52.262 25.9593C52.1405 25.9828 52.0654 26.0269 52.0364 26.0917C52.0075 26.1564 51.9931 26.2624 51.9931 26.4095V30.5762C51.9931 30.7233 52.0104 30.8234 52.0451 30.8763C52.0798 30.9293 52.1579 30.9705 52.2793 30.9999L52.6784 31.0617V31.5826H50.0933V31.0617L50.5097 30.9999C50.6311 30.9764 50.7063 30.9323 50.7352 30.8675C50.7642 30.7969 50.7786 30.688 50.7786 30.5409V26.074H48.2283V30.5762C48.2283 30.7233 48.2427 30.8234 48.2716 30.8763C48.3063 30.9293 48.3844 30.9705 48.5058 30.9999L48.9136 31.0617V31.5826H46.3198Z" fill="#406882"/>
<path d="M56.6321 31.7062C56.0191 31.7062 55.4957 31.5767 55.062 31.3177C54.6282 31.0529 54.2957 30.688 54.0644 30.2231C53.8388 29.7523 53.7261 29.2108 53.7261 28.5988C53.7261 27.8984 53.8504 27.3011 54.0991 26.8067C54.3477 26.3065 54.6976 25.924 55.1487 25.6591C55.6056 25.3884 56.1405 25.253 56.7535 25.253C57.326 25.253 57.8263 25.3766 58.2542 25.6238C58.6822 25.871 59.0147 26.2241 59.2518 26.6831C59.4889 27.1422 59.6075 27.6895 59.6075 28.3251C59.6075 28.8136 59.5381 29.2667 59.3993 29.6846C59.2663 30.0966 59.0726 30.4556 58.8181 30.7616C58.5636 31.0617 58.2514 31.2942 57.8812 31.459C57.5169 31.6238 57.1005 31.7062 56.6321 31.7062ZM56.7362 30.9911C56.9964 30.9911 57.2248 30.944 57.4215 30.8499C57.6181 30.7498 57.78 30.5997 57.9073 30.3996C58.0403 30.1937 58.1386 29.9347 58.2022 29.6228C58.2716 29.305 58.3063 28.9283 58.3063 28.4928C58.3063 28.075 58.2687 27.7101 58.1935 27.3982C58.1183 27.0804 58.0085 26.8156 57.8639 26.6037C57.7251 26.3859 57.5487 26.2241 57.3347 26.1182C57.1265 26.0063 56.8894 25.9504 56.6234 25.9504C56.3632 25.9504 56.1318 26.0005 55.9294 26.1005C55.727 26.2006 55.5564 26.3536 55.4176 26.5596C55.2846 26.7597 55.1805 27.0157 55.1053 27.3276C55.0359 27.6336 55.0012 27.9955 55.0012 28.4134C55.0012 28.8254 55.0388 29.1932 55.114 29.5169C55.195 29.8347 55.3106 30.1054 55.461 30.329C55.6114 30.5468 55.7935 30.7116 56.0075 30.8234C56.2215 30.9352 56.4644 30.9911 56.7362 30.9911Z" fill="#406882"/>
<path d="M60.6444 31.5826V31.0617L61.0695 30.9999C61.1793 30.9764 61.2516 30.9381 61.2863 30.8852C61.321 30.8263 61.3384 30.7116 61.3384 30.5409V26.3742C61.3384 26.227 61.3181 26.127 61.2776 26.074C61.243 26.0152 61.1678 25.9769 61.0521 25.9593L60.6444 25.8975V25.3766H63.108C63.6458 25.3766 64.0796 25.4325 64.4092 25.5444C64.7446 25.6562 64.9904 25.821 65.1466 26.0387C65.3085 26.2506 65.3895 26.5154 65.3895 26.8332C65.3895 27.0745 65.3345 27.2923 65.2246 27.4865C65.1148 27.6748 64.9644 27.8366 64.7735 27.972C64.5827 28.1015 64.3687 28.1956 64.1316 28.2545V28.2986C64.6405 28.3516 65.0338 28.5046 65.3114 28.7577C65.5948 29.0049 65.7364 29.3521 65.7364 29.7994C65.7364 30.176 65.6381 30.4967 65.4415 30.7616C65.2507 31.0264 64.9673 31.2295 64.5914 31.3707C64.2155 31.5119 63.7528 31.5826 63.2034 31.5826H60.6444ZM63.0907 30.9734C63.3914 30.9734 63.6401 30.9293 63.8367 30.841C64.0391 30.7469 64.1923 30.6115 64.2964 30.435C64.4005 30.2525 64.4526 30.0289 64.4526 29.764C64.4526 29.5051 64.4005 29.2962 64.2964 29.1373C64.1923 28.9725 64.0391 28.8518 63.8367 28.7753C63.6401 28.6929 63.3972 28.6517 63.108 28.6517C62.8709 28.6517 62.6858 28.6635 62.5528 28.6871V30.9293C62.6164 30.947 62.6945 30.9587 62.787 30.9646C62.8796 30.9705 62.9808 30.9734 63.0907 30.9734ZM62.9692 28.0868C63.2179 28.0868 63.4261 28.0426 63.5938 27.9543C63.7673 27.8661 63.9003 27.7366 63.9928 27.5659C64.0911 27.3953 64.1403 27.1893 64.1403 26.948C64.1403 26.7185 64.0998 26.5331 64.0189 26.3918C63.9437 26.2447 63.8222 26.1388 63.6545 26.074C63.4868 26.0034 63.2642 25.9681 62.9866 25.9681H62.5528V28.0691C62.6049 28.075 62.6627 28.0809 62.7263 28.0868C62.7957 28.0868 62.8767 28.0868 62.9692 28.0868Z" fill="#406882"/>
<path d="M66.3067 31.5826V31.0529L66.6797 30.9911C66.7896 30.9617 66.8705 30.9175 66.9226 30.8587C66.9804 30.7998 67.0382 30.6821 67.0961 30.5056L68.8917 25.3766H70.0802L71.8758 30.5321C71.9337 30.691 71.9828 30.7998 72.0233 30.8587C72.0696 30.9175 72.1534 30.9587 72.2749 30.9823L72.5958 31.0529V31.5826H69.9847V31.0529L70.4272 30.9999C70.537 30.9823 70.6035 30.9411 70.6267 30.8763C70.6556 30.8057 70.6469 30.6968 70.6006 30.5497L70.297 29.6316H68.1284L67.8334 30.5144C67.7929 30.638 67.7785 30.7439 67.79 30.8322C67.8016 30.9205 67.8855 30.9764 68.0416 30.9999L68.4753 31.0706V31.5826H66.3067ZM68.3365 29.0313H70.1149L69.2561 26.3565H69.23L68.3365 29.0313Z" fill="#406882"/>
<path d="M75.1807 27.9043C75.1807 27.7689 75.2886 27.6591 75.4217 27.6591H79.759C79.8921 27.6591 80 27.7689 80 27.9043C80 28.0398 79.8921 28.1495 79.759 28.1495H75.4217C75.2886 28.1495 75.1807 28.0398 75.1807 27.9043Z" fill="#406882"/>
<path d="M40.7553 42.8073C40.7075 42.7391 40.6806 42.6579 40.6781 42.5742C40.6755 42.4904 40.6974 42.4077 40.7409 42.3365C40.7845 42.2654 40.8478 42.209 40.9228 42.1744C40.9979 42.1398 41.0813 42.1286 41.1626 42.1421C41.2438 42.1557 41.3193 42.1935 41.3796 42.2507C41.4398 42.3079 41.482 42.382 41.5009 42.4636C41.5198 42.5452 41.5145 42.6306 41.4857 42.7092C41.457 42.7877 41.406 42.8559 41.3392 42.905C41.2947 42.9377 41.2442 42.9612 41.1906 42.9741C41.1371 42.9869 41.0816 42.9888 41.0273 42.9798C40.9731 42.9707 40.9211 42.9508 40.8744 42.9212C40.8277 42.8916 40.7873 42.8529 40.7553 42.8073Z" fill="#406882"/>
<path d="M43.6498 42.975C43.602 42.9067 43.5751 42.8256 43.5725 42.7418C43.5699 42.658 43.5918 42.5753 43.6354 42.5042C43.6789 42.433 43.7422 42.3766 43.8172 42.342C43.8923 42.3074 43.9757 42.2962 44.057 42.3098C44.1383 42.3234 44.2138 42.3612 44.274 42.4184C44.3342 42.4756 44.3764 42.5496 44.3953 42.6312C44.4142 42.7128 44.4089 42.7983 44.3802 42.8768C44.3514 42.9554 44.3004 43.0235 44.2337 43.0726C44.1891 43.1054 44.1386 43.1289 44.0851 43.1417C44.0315 43.1545 43.976 43.1565 43.9218 43.1474C43.8675 43.1383 43.8155 43.1184 43.7688 43.0888C43.7222 43.0592 43.6817 43.0205 43.6498 42.975Z" fill="#406882"/>
<path d="M47.1406 40.2735C47.06 40.1585 47.0146 40.0216 47.0103 39.8804C47.006 39.7391 47.043 39.5997 47.1165 39.4798C47.19 39.3598 47.2967 39.2648 47.4233 39.2066C47.5499 39.1484 47.6905 39.1296 47.8276 39.1527C47.9646 39.1758 48.0918 39.2397 48.1932 39.3363C48.2945 39.4329 48.3655 39.558 48.3971 39.6956C48.4287 39.8332 48.4195 39.9773 48.3706 40.1096C48.3218 40.2419 48.2356 40.3566 48.1228 40.439C47.9709 40.5494 47.7822 40.594 47.5981 40.5629C47.4139 40.5319 47.2494 40.4278 47.1406 40.2735Z" fill="#406882"/>
<path d="M46.6631 39.3377C46.6487 39.1319 46.6691 38.9252 46.7235 38.7265C46.8084 38.4221 46.9668 38.1441 47.1844 37.918C47.5018 37.6099 47.8782 37.3718 48.2901 37.2184C48.702 37.0651 49.1405 36.9998 49.5783 37.0267C49.79 37.0349 50 37.0684 50.2039 37.1264C50.4084 37.181 50.6047 37.263 50.7878 37.3705C51.1605 37.5742 51.4577 37.8961 51.6345 38.2872C51.7165 38.482 51.7534 38.6934 51.7422 38.905C51.731 39.1166 51.672 39.3228 51.5698 39.5074C51.4639 39.687 51.3117 39.8338 51.1298 39.9319C50.9424 40.0321 50.7347 40.0865 50.523 40.091C50.3811 40.0972 50.2395 40.0739 50.1069 40.0224C49.9742 39.971 49.8532 39.8925 49.7514 39.7918C49.6562 39.7067 49.5893 39.5937 49.5598 39.4683C49.5303 39.3429 49.5397 39.2112 49.5867 39.0915C49.615 39.0425 49.6539 39.0007 49.7006 38.9695C49.7472 38.9382 49.8003 38.9182 49.8557 38.9111C49.9766 38.8909 50.1007 38.9102 50.2102 38.9663C50.2632 38.993 50.3111 39.0289 50.352 39.0724C50.3939 39.1176 50.4297 39.1682 50.4584 39.2231C50.5157 39.3386 50.5484 39.4652 50.5543 39.5944C50.5638 39.8609 50.5018 40.125 50.3749 40.3584C50.2507 40.5904 50.0819 40.7946 49.8786 40.959C49.4825 41.2787 49.0005 41.4689 48.4961 41.5044C48.0158 41.538 47.5333 41.4877 47.0697 41.3558C46.6289 41.2307 46.197 41.0754 45.7768 40.8911C44.9552 40.5409 44.1773 40.1908 43.3933 40.0422C43.0156 39.9672 42.6293 39.9487 42.2463 39.987C41.8875 40.0222 41.536 40.1123 41.2037 40.2544C40.6065 40.4883 40.1021 40.9166 39.769 41.4725C39.6319 41.7101 39.548 41.9756 39.5235 42.25C39.499 42.5245 39.5344 42.801 39.6272 43.0599C39.7136 43.2858 39.8575 43.4843 40.0442 43.635C40.2083 43.7732 40.4018 43.8706 40.6094 43.9193C40.7961 43.9683 40.9919 43.9683 41.1787 43.9193C41.3447 43.8706 41.4961 43.7801 41.6187 43.6562C41.7215 43.5563 41.8038 43.4365 41.8607 43.3039C41.9177 43.1713 41.9481 43.0284 41.9502 42.8837C41.9488 42.6618 41.8619 42.4492 41.7083 42.2917C41.5993 42.1717 41.451 42.0963 41.2913 42.0794C41.1854 42.0698 41.0789 42.0889 40.9826 42.1346C40.9252 42.1636 40.873 42.2024 40.8283 42.2492C40.8064 42.2729 40.7875 42.2993 40.772 42.3277L40.7595 42.3511L40.7741 42.3299C40.7919 42.3032 40.8129 42.279 40.8367 42.2577C40.8822 42.2142 40.9352 42.1797 40.9931 42.1558C41.0861 42.117 41.1875 42.1038 41.2871 42.1176C41.4321 42.1416 41.5643 42.2167 41.6604 42.3299C41.7932 42.4828 41.8633 42.6818 41.8564 42.8859C41.8507 43.0185 41.8192 43.1488 41.7637 43.269C41.7083 43.3892 41.6299 43.497 41.5332 43.5862C41.4206 43.6938 41.2838 43.7717 41.1349 43.8132C40.9664 43.8557 40.7903 43.8557 40.6219 43.8132C40.4248 43.7626 40.2428 43.6639 40.0917 43.5256C39.9405 43.3873 39.8248 43.2136 39.7544 43.0195C39.6742 42.7819 39.6465 42.5292 39.6732 42.2795C39.6998 42.0297 39.7803 41.7889 39.9087 41.5744C40.2285 41.0589 40.7064 40.6651 41.2683 40.4539C41.5803 40.3252 41.9091 40.2437 42.2443 40.212C42.6075 40.1798 42.9735 40.2012 43.3307 40.2756C44.0814 40.4178 44.8384 40.7637 45.6642 41.1245C46.0932 41.3177 46.535 41.4801 46.9863 41.6105C47.4775 41.7519 47.9887 41.8071 48.4981 41.7739C49.0544 41.7379 49.5868 41.5307 50.0246 41.1797C50.2554 40.992 50.4474 40.7598 50.5897 40.4963C50.7406 40.2191 50.8128 39.9046 50.7983 39.5881C50.7948 39.4219 50.7564 39.2583 50.6856 39.1085C50.6456 39.0315 50.5958 38.9601 50.5376 38.8963C50.4773 38.8306 50.4068 38.7754 50.3291 38.7329C50.1681 38.6503 49.9857 38.6214 49.8077 38.6501C49.7117 38.6641 49.6199 38.7 49.5394 38.7551C49.4589 38.8102 49.3917 38.8831 49.3427 38.9684C49.2509 39.1405 49.2292 39.3425 49.2822 39.5308C49.3271 39.7099 49.4185 39.8734 49.5471 40.004C49.6751 40.1299 49.8268 40.2283 49.993 40.2932C50.1593 40.3581 50.3367 40.3882 50.5147 40.3818C50.7709 40.3779 51.0227 40.314 51.2508 40.195C51.4801 40.0718 51.673 39.8887 51.8096 39.6645C51.9405 39.4403 52.0199 39.1889 52.0419 38.9291C52.0639 38.6693 52.028 38.4078 51.9368 38.1641C51.8477 37.9236 51.7155 37.702 51.5469 37.5105C51.383 37.3215 51.1943 37.1566 50.9859 37.0203C50.7807 36.8817 50.5584 36.7711 50.3249 36.6914C50.0951 36.6096 49.8574 36.5527 49.6159 36.5216C49.0936 36.4493 48.5622 36.4902 48.0565 36.6416C47.5509 36.793 47.0824 37.0515 46.6818 37.4002C46.5112 37.5577 46.3619 37.7375 46.2377 37.9349C46.1255 38.1105 46.0365 38.3003 45.9728 38.4994C45.8797 38.7901 45.8435 39.0965 45.8665 39.4013C45.8789 39.6731 45.9585 39.9374 46.0979 40.1695C46.2403 40.3996 46.4474 40.5807 46.6923 40.6895C46.8883 40.7761 47.1017 40.8144 47.3151 40.8015C47.5285 40.7886 47.7359 40.7248 47.9205 40.6152C48.0443 40.5457 48.1509 40.4485 48.2322 40.3308C48.3135 40.2131 48.3673 40.0781 48.3897 39.9361C48.4064 39.7387 48.3438 39.6433 48.2938 39.6411C48.2437 39.639 48.1853 39.7218 48.0978 39.8258C47.9892 39.9565 47.8435 40.0499 47.6807 40.0931C47.5733 40.1217 47.4619 40.1317 47.3512 40.1229C47.2319 40.1121 47.1165 40.0744 47.0134 40.0125C46.9042 39.9388 46.815 39.8384 46.7538 39.7205C46.6926 39.6026 46.6614 39.471 46.6631 39.3377Z" fill="#406882"/>
<path d="M43.6206 42.8434C43.6147 42.8325 43.6099 42.8212 43.606 42.8095C43.5922 42.775 43.5844 42.7384 43.583 42.7012C43.5821 42.6269 43.5985 42.5533 43.6307 42.4866C43.663 42.4199 43.7102 42.3618 43.7686 42.3171C43.9647 42.1819 44.2049 42.1302 44.438 42.1728C44.6168 42.1971 44.7884 42.2599 44.9415 42.3569C45.0946 42.454 45.2256 42.5831 45.3258 42.7356C45.426 42.8882 45.4931 43.0608 45.5227 43.2418C45.5523 43.4229 45.5437 43.6083 45.4974 43.7856C45.4425 44.0146 45.3312 44.2257 45.1741 44.3989C45.0019 44.5805 44.7863 44.7135 44.5485 44.7852C44.2995 44.8617 44.0355 44.8726 43.7811 44.817C43.5193 44.7598 43.2739 44.6422 43.0638 44.4732C42.7393 44.2 42.508 43.8293 42.4032 43.4142C42.2983 42.9991 42.3251 42.5608 42.4799 42.1622C42.5823 41.9074 42.7325 41.6753 42.922 41.4789C43.2745 41.1104 43.7418 40.8778 44.2441 40.821C44.6662 40.7872 45.0909 40.8354 45.4953 40.9632C45.8665 41.0714 46.1897 41.2009 46.4858 41.3027C46.9483 41.4755 47.433 41.5791 47.9247 41.6105C48.0998 41.6105 48.2375 41.6105 48.3313 41.6105H48.4731L48.3334 41.6423C48.2416 41.6614 48.104 41.6847 47.9163 41.7038C47.4067 41.7547 46.8924 41.7195 46.3941 41.5998C46.0792 41.5319 45.7434 41.4407 45.3889 41.3749C45.0294 41.2988 44.6596 41.2873 44.2962 41.3409C43.9228 41.4075 43.5822 41.5996 43.3286 41.8863C43.195 42.0311 43.0913 42.2017 43.0236 42.3879C42.9559 42.5742 42.9256 42.7724 42.9345 42.9707C42.9414 43.1669 42.9873 43.3596 43.0694 43.5372C43.1514 43.7148 43.268 43.8737 43.412 44.0042C43.5441 44.1226 43.7013 44.2083 43.8713 44.2547C44.0413 44.3011 44.2196 44.3068 44.3921 44.2716C44.5462 44.2369 44.6895 44.164 44.8092 44.0594C44.9238 43.9534 45.0106 43.8199 45.0615 43.671C45.1115 43.532 45.1294 43.3832 45.1139 43.236C45.0983 43.0888 45.0498 42.9472 44.9719 42.8222C44.8304 42.6036 44.6165 42.444 44.3692 42.3723C44.1797 42.3078 43.9731 42.3192 43.7916 42.4041C43.7357 42.4344 43.6877 42.4776 43.6515 42.5304C43.6152 42.5831 43.5918 42.6438 43.583 42.7076C43.5775 42.742 43.5775 42.7771 43.583 42.8116L43.6206 42.8434Z" fill="#406882"/>
<path d="M47.1844 43.1405C47.2107 43.1485 47.236 43.1599 47.2595 43.1745C47.3284 43.2192 47.384 43.2823 47.42 43.357C47.4513 43.4195 47.4701 43.4877 47.4751 43.5577C47.4801 43.6277 47.4713 43.6979 47.4492 43.7644C47.4139 43.855 47.3575 43.9356 47.2849 43.9992C47.2122 44.0628 47.1255 44.1074 47.0322 44.1294C46.9185 44.1565 46.7999 44.1528 46.6881 44.1188C46.565 44.0784 46.4548 44.0051 46.369 43.9066C46.2751 43.8049 46.2077 43.6809 46.173 43.5458C46.1375 43.4002 46.1375 43.2479 46.173 43.1023C46.2104 42.9514 46.278 42.8099 46.3717 42.6868C46.4654 42.5638 46.583 42.4617 46.7173 42.3872C46.99 42.2377 47.2987 42.17 47.6077 42.1919C47.9038 42.2025 48.1624 42.2513 48.3981 42.2577C48.627 42.2655 48.856 42.2448 49.08 42.1962C49.4685 42.1103 49.835 41.9426 50.156 41.7038C50.3788 41.5379 50.5775 41.3407 50.7461 41.1181C50.8108 41.0354 50.8707 40.949 50.9255 40.8592L50.8984 40.9356C50.8729 41.0079 50.8436 41.0787 50.8108 41.1478C50.6848 41.4177 50.5157 41.6644 50.3103 41.8778C49.9977 42.2041 49.6099 42.4456 49.1821 42.5803C48.9269 42.6621 48.6615 42.7064 48.3939 42.7118C48.1124 42.7118 47.8413 42.6715 47.591 42.663C47.3655 42.6445 47.1391 42.6862 46.9342 42.784C46.8471 42.8259 46.7691 42.8851 46.7047 42.9579C46.6402 43.0308 46.5907 43.1159 46.5588 43.2084C46.5296 43.2884 46.5198 43.3743 46.5304 43.459C46.5409 43.5436 46.5714 43.6244 46.6193 43.6944C46.6596 43.7579 46.7158 43.8092 46.7822 43.8432C46.8485 43.8771 46.9226 43.8924 46.9967 43.8875C47.062 43.8843 47.1257 43.8656 47.1825 43.8328C47.2394 43.8 47.2879 43.754 47.3241 43.6986C47.3777 43.6019 47.392 43.4876 47.3637 43.3803C47.3463 43.3077 47.3103 43.2411 47.2595 43.1872C47.237 43.1677 47.2117 43.1519 47.1844 43.1405Z" fill="#406882"/>
<path d="M41.4414 38.9366C41.4633 38.9149 41.4835 38.8914 41.5019 38.8665C41.5511 38.7981 41.5814 38.7175 41.5895 38.6331C41.6021 38.5083 41.5679 38.3831 41.4935 38.283C41.4433 38.2272 41.3809 38.1842 41.3114 38.1573C41.2419 38.1304 41.1671 38.1204 41.0932 38.128C41.0097 38.1348 40.9295 38.1641 40.861 38.213C40.7924 38.2619 40.7379 38.3285 40.7032 38.406C40.6614 38.491 40.64 38.5848 40.6406 38.6798C40.6435 38.7776 40.6685 38.8735 40.7136 38.9599C40.8181 39.156 40.9941 39.3023 41.2037 39.3674C41.4492 39.4407 41.7091 39.4487 41.9586 39.3907C42.238 39.3377 42.5341 39.2422 42.8511 39.2018C43.1518 39.1614 43.4566 39.1657 43.7561 39.2146C44.2572 39.2936 44.7309 39.4986 45.1345 39.8109C45.3999 40.0144 45.6297 40.2619 45.8143 40.543C45.8769 40.6406 45.9207 40.7213 45.9499 40.7743L45.9916 40.8592L45.9311 40.7892C45.8915 40.7425 45.831 40.6767 45.7497 40.5982C45.5234 40.3772 45.2679 40.1893 44.9906 40.0401C44.592 39.8265 44.1536 39.7006 43.704 39.6708C43.4452 39.655 43.1855 39.6707 42.9303 39.7175C42.6697 39.7642 42.3861 39.8639 42.0566 39.9297C41.7136 40.0061 41.3564 39.9818 41.0264 39.8597C40.8637 39.7988 40.7151 39.7042 40.5902 39.5818C40.4653 39.4595 40.3667 39.312 40.3007 39.1488C40.237 38.9925 40.2127 38.8226 40.2298 38.6543C40.2464 38.4969 40.3008 38.346 40.3883 38.2151C40.4705 38.0919 40.5826 37.9925 40.7136 37.9264C40.8333 37.8692 40.9656 37.8451 41.0973 37.8564C41.2071 37.8634 41.3135 37.8975 41.4073 37.956C41.5011 38.0144 41.5794 38.0954 41.6353 38.1917C41.671 38.2626 41.6925 38.34 41.6986 38.4194C41.7047 38.4988 41.6952 38.5787 41.6708 38.6543C41.6429 38.7447 41.59 38.825 41.5186 38.8857C41.494 38.9043 41.4682 38.9213 41.4414 38.9366Z" fill="#406882"/>
<path d="M42.0962 43.3527L42.0795 43.4376C42.0795 43.4928 42.0503 43.5692 42.0253 43.6647C41.9559 43.8997 41.8578 44.125 41.7334 44.3353C41.5193 44.6941 41.2355 45.0046 40.8992 45.2478C40.8441 45.2903 40.7797 45.3187 40.7115 45.3305C40.6582 45.3434 40.6023 45.3397 40.551 45.3199C40.5064 45.3038 40.466 45.2775 40.4331 45.2429C40.4002 45.2083 40.3756 45.1663 40.3612 45.1204C40.3443 45.0751 40.3368 45.0268 40.3391 44.9784C40.3415 44.93 40.3536 44.8826 40.3747 44.8392C40.3958 44.7957 40.4255 44.7572 40.462 44.726C40.4984 44.6948 40.5408 44.6716 40.5864 44.6578C40.7012 44.6186 40.8134 44.5718 40.9222 44.5178C41.3272 44.3101 41.6732 44.0003 41.9273 43.618C41.9773 43.5395 42.019 43.4737 42.0441 43.4249L42.0962 43.3527Z" fill="#406882"/>
<path d="M42.2359 43.6392L42.2672 43.7156C42.2939 43.7844 42.3148 43.8554 42.3298 43.9278C42.3799 44.1584 42.3898 44.3962 42.359 44.6302C42.3281 44.8787 42.2701 45.1228 42.1859 45.3581C42.115 45.5576 42.0524 45.6998 42.0378 45.738C42.0222 45.787 41.9953 45.8316 41.9595 45.8681C41.9236 45.9046 41.8798 45.9319 41.8316 45.9478C41.7834 45.9638 41.7322 45.9679 41.6821 45.9598C41.6321 45.9517 41.5846 45.9317 41.5436 45.9014C41.502 45.8757 41.4666 45.8409 41.44 45.7994C41.4134 45.758 41.3963 45.711 41.3899 45.6619C41.3835 45.6129 41.388 45.563 41.403 45.5159C41.4181 45.4688 41.4433 45.4258 41.4769 45.39C41.7058 45.1336 41.9014 44.8483 42.0587 44.5411C42.1508 44.3483 42.21 44.1409 42.2338 43.9278C42.2383 43.8571 42.2383 43.7863 42.2338 43.7156L42.2359 43.6392Z" fill="#406882"/>
<path d="M42.7135 44.1697C42.7135 44.1697 42.7698 44.244 42.849 44.3607C42.9477 44.51 43.0362 44.666 43.1138 44.8276C43.2439 45.0984 43.3439 45.3831 43.412 45.6765C43.46 45.9014 43.2682 46.0117 43.0826 45.999C42.897 45.9863 42.726 45.8865 42.7531 45.7062C42.8001 45.4423 42.8197 45.1741 42.8115 44.9061C42.8034 44.6579 42.7706 44.4112 42.7135 44.1697Z" fill="#406882"/>
<path d="M39.2351 42.8073C39.283 42.7391 39.3098 42.6579 39.3124 42.5742C39.315 42.4904 39.2931 42.4077 39.2495 42.3365C39.206 42.2654 39.1427 42.209 39.0677 42.1744C38.9926 42.1398 38.9092 42.1286 38.8279 42.1421C38.7466 42.1557 38.6711 42.1935 38.6109 42.2507C38.5507 42.3079 38.5085 42.382 38.4896 42.4636C38.4707 42.5452 38.476 42.6306 38.5047 42.7092C38.5335 42.7877 38.5845 42.8559 38.6513 42.905C38.6958 42.9377 38.7463 42.9612 38.7999 42.9741C38.8534 42.9869 38.9089 42.9888 38.9632 42.9798C39.0174 42.9707 39.0694 42.9508 39.1161 42.9212C39.1628 42.8916 39.2032 42.8529 39.2351 42.8073Z" fill="#406882"/>
<path d="M36.3407 42.975C36.3883 42.9067 36.4149 42.8256 36.4173 42.7419C36.4197 42.6583 36.3977 42.5758 36.3541 42.5048C36.3106 42.4338 36.2473 42.3775 36.1724 42.343C36.0975 42.3084 36.0142 42.2972 35.933 42.3108C35.8519 42.3243 35.7764 42.3619 35.7162 42.419C35.656 42.476 35.6137 42.5499 35.5947 42.6313C35.5756 42.7127 35.5807 42.7981 35.6091 42.8766C35.6376 42.9551 35.6883 43.0233 35.7547 43.0726C35.7994 43.1057 35.85 43.1295 35.9038 43.1425C35.9575 43.1555 36.0133 43.1576 36.0678 43.1485C36.1223 43.1394 36.1745 43.1194 36.2213 43.0896C36.2682 43.0598 36.3088 43.0209 36.3407 42.975Z" fill="#406882"/>
<path d="M32.8582 40.2735C32.9395 40.1582 32.9854 40.0209 32.9901 39.8791C32.9947 39.7372 32.9578 39.5971 32.8842 39.4766C32.8106 39.356 32.7034 39.2604 32.5764 39.2019C32.4493 39.1433 32.308 39.1245 32.1704 39.1476C32.0328 39.1708 31.9051 39.2351 31.8034 39.3322C31.7016 39.4293 31.6305 39.5549 31.599 39.6932C31.5675 39.8315 31.577 39.9761 31.6263 40.1089C31.6756 40.2417 31.7625 40.3566 31.876 40.439C32.0281 40.5489 32.2167 40.5931 32.4006 40.5621C32.5846 40.5311 32.7491 40.4274 32.8582 40.2735Z" fill="#406882"/>
<path d="M33.3274 39.3377C33.3434 39.1324 33.3258 38.9259 33.2753 38.7265C33.1904 38.4221 33.032 38.1441 32.8144 37.918C32.497 37.6099 32.1206 37.3718 31.7087 37.2184C31.2968 37.0651 30.8583 36.9998 30.4205 37.0267C30.2088 37.0349 29.9989 37.0684 29.7949 37.1264C29.5903 37.1806 29.3939 37.2627 29.211 37.3705C28.8379 37.5736 28.5405 37.8956 28.3644 38.2872C28.2818 38.4819 28.2447 38.6933 28.2559 38.905C28.2671 39.1167 28.3264 39.3229 28.429 39.5074C28.5349 39.687 28.6871 39.8338 28.869 39.9319C29.0557 40.032 29.2627 40.0865 29.4737 40.091C29.6159 40.0975 29.7579 40.0743 29.891 40.0229C30.024 39.9714 30.1453 39.8928 30.2474 39.7918C30.3426 39.7067 30.4096 39.5937 30.4391 39.4683C30.4686 39.3429 30.4592 39.2112 30.4121 39.0915C30.3836 39.0422 30.3444 39.0003 30.2973 38.969C30.2503 38.9377 30.1968 38.9179 30.141 38.9111C30.0208 38.8909 29.8974 38.9103 29.7886 38.9663C29.7357 38.993 29.6877 39.0289 29.6468 39.0724C29.6049 39.1176 29.5692 39.1682 29.5405 39.2231C29.4822 39.3382 29.4494 39.465 29.4445 39.5944C29.434 39.861 29.496 40.1254 29.6239 40.3584C29.748 40.5899 29.916 40.794 30.1181 40.959C30.5142 41.2787 30.9963 41.4689 31.5007 41.5044C31.9817 41.5381 32.4648 41.4879 32.9291 41.3558C33.3699 41.2307 33.8018 41.0754 34.222 40.8911C35.0436 40.5409 35.8215 40.1908 36.6056 40.0422C36.9832 39.9672 37.3696 39.9487 37.7525 39.987C38.1113 40.0222 38.4628 40.1123 38.7951 40.2544C39.3916 40.4896 39.8956 40.9175 40.2298 41.4725C40.367 41.7101 40.4508 41.9756 40.4753 42.25C40.4998 42.5245 40.4644 42.801 40.3716 43.0599C40.2894 43.2732 40.1574 43.4629 39.987 43.6126C39.8166 43.7624 39.613 43.8676 39.3936 43.9193C39.2069 43.9683 39.0111 43.9683 38.8243 43.9193C38.6589 43.8706 38.5083 43.7801 38.3864 43.6562C38.2836 43.5561 38.2013 43.4363 38.144 43.3038C38.0868 43.1712 38.0558 43.0285 38.0528 42.8837C38.0524 42.6618 38.1361 42.4483 38.2863 42.2874C38.396 42.1683 38.5439 42.093 38.7034 42.0752C38.8086 42.0653 38.9144 42.0844 39.0099 42.1304C39.0683 42.1589 39.1212 42.1977 39.1663 42.245C39.1882 42.2687 39.2071 42.2951 39.2226 42.3235L39.2351 42.3468L39.2205 42.3256C39.2027 42.299 39.1817 42.2748 39.158 42.2535C39.1125 42.21 39.0595 42.1754 39.0016 42.1516C38.9086 42.1128 38.8072 42.0996 38.7076 42.1134C38.5625 42.1373 38.4304 42.2125 38.3343 42.3256C38.2015 42.4786 38.1313 42.6776 38.1383 42.8816C38.1439 43.0143 38.1754 43.1445 38.2309 43.2647C38.2864 43.3849 38.3648 43.4927 38.4615 43.5819C38.5741 43.6895 38.7108 43.7675 38.8598 43.809C39.0282 43.8514 39.2043 43.8514 39.3728 43.809C39.5698 43.7583 39.7518 43.6596 39.903 43.5213C40.0541 43.383 40.1699 43.2094 40.2403 43.0153C40.3199 42.7776 40.3473 42.525 40.3206 42.2753C40.294 42.0256 40.2139 41.7849 40.086 41.5701C39.7657 41.0551 39.288 40.6614 38.7263 40.4497C38.4137 40.3208 38.0842 40.2392 37.7483 40.2077C37.385 40.1757 37.0191 40.1971 36.6619 40.2714C35.9132 40.4136 35.1562 40.7595 34.3305 41.1203C33.9015 41.3135 33.4597 41.4759 33.0084 41.6062C32.5172 41.7475 32.0059 41.8028 31.4965 41.7696C30.9401 41.7344 30.4075 41.5271 29.9701 41.1754C29.7387 40.9884 29.5465 40.756 29.4049 40.4921C29.2551 40.2145 29.183 39.9003 29.1964 39.5838C29.2042 39.4158 29.2476 39.2515 29.3236 39.1021C29.363 39.0247 29.4128 38.9532 29.4717 38.8899C29.532 38.8243 29.6024 38.7691 29.6802 38.7265C29.8411 38.6439 30.0235 38.615 30.2015 38.6437C30.2976 38.6577 30.3893 38.6936 30.4698 38.7487C30.5503 38.8039 30.6176 38.8768 30.6665 38.962C30.7584 39.1342 30.7801 39.3361 30.727 39.5244C30.6814 39.7037 30.5892 39.8671 30.4601 39.9976C30.3323 40.1263 30.18 40.2269 30.0125 40.2934C29.845 40.3598 29.6659 40.3906 29.4863 40.3839C29.2299 40.3809 28.9778 40.317 28.7501 40.1971C28.5204 40.0745 28.3274 39.8913 28.1913 39.6666C28.0599 39.4426 27.9801 39.1912 27.9581 38.9313C27.9361 38.6714 27.9723 38.4098 28.0641 38.1663C28.1532 37.9257 28.2854 37.7041 28.454 37.5126C28.6169 37.3227 28.8058 37.1576 29.015 37.0224C29.2195 36.8839 29.4411 36.7733 29.6739 36.6935C29.9045 36.6117 30.1428 36.5548 30.385 36.5237C30.907 36.4513 31.4381 36.4922 31.9434 36.6436C32.4488 36.795 32.9169 37.0536 33.317 37.4023C33.4882 37.5598 33.6383 37.7396 33.7633 37.9371C33.8746 38.1131 33.9636 38.3028 34.0281 38.5015C34.1212 38.7922 34.1574 39.0986 34.1344 39.4035C34.118 39.678 34.0349 39.9442 33.8925 40.178C33.7499 40.4086 33.542 40.5899 33.2961 40.6979C33.1001 40.7845 32.8867 40.8229 32.6733 40.81C32.4599 40.7971 32.2525 40.7333 32.0679 40.6237C31.9441 40.5545 31.8376 40.4572 31.7566 40.3395C31.6756 40.2217 31.6223 40.0866 31.6008 39.9446C31.5841 39.7472 31.6467 39.6517 31.6967 39.6496C31.7467 39.6475 31.8051 39.7303 31.8927 39.8342C32.0013 39.965 32.147 40.0584 32.3098 40.1016C32.4172 40.1301 32.5286 40.1402 32.6393 40.1313C32.7585 40.1202 32.8738 40.0826 32.9771 40.021C33.0874 39.9465 33.1774 39.8447 33.2387 39.7252C33.3 39.6057 33.3305 39.4724 33.3274 39.3377Z" fill="#406882"/>
<path d="M36.3699 42.8434L36.3845 42.8095C36.3973 42.7747 36.405 42.7382 36.4074 42.7012C36.4084 42.6266 36.3919 42.5529 36.3593 42.4861C36.3266 42.4193 36.2788 42.3613 36.2198 42.3171C36.0243 42.1823 35.7849 42.1305 35.5525 42.1728C35.3737 42.1971 35.2021 42.2599 35.049 42.3569C34.8959 42.454 34.7649 42.5831 34.6647 42.7356C34.5645 42.8882 34.4973 43.0608 34.4678 43.2418C34.4382 43.4229 34.4468 43.6083 34.4931 43.7856C34.548 44.0146 34.6592 44.2257 34.8163 44.3989C34.9886 44.5805 35.2041 44.7135 35.4419 44.7852C35.691 44.8617 35.955 44.8726 36.2093 44.817C36.4709 44.7589 36.7161 44.6414 36.9267 44.4732C37.2512 44.2 37.4824 43.8293 37.5873 43.4142C37.6922 42.9991 37.6653 42.5608 37.5106 42.1622C37.4082 41.9074 37.258 41.6753 37.0685 41.4789C36.716 41.1104 36.2487 40.8778 35.7464 40.821C35.3242 40.7872 34.8996 40.8354 34.4952 40.9632C34.124 41.0714 33.8008 41.2009 33.5047 41.3027C33.0422 41.4755 32.5575 41.5791 32.0658 41.6105C31.8906 41.6105 31.753 41.6105 31.6592 41.6105H31.5174L31.6571 41.6423C31.7488 41.6614 31.8844 41.6847 32.0741 41.7038C32.5837 41.7547 33.0981 41.7195 33.5964 41.5998C33.9092 41.5319 34.2471 41.4407 34.5995 41.3749C34.9597 41.2988 35.3302 41.2874 35.6943 41.3409C36.0675 41.408 36.408 41.6 36.6619 41.8863C36.7951 42.0313 36.8984 42.2019 36.9657 42.3882C37.0331 42.5744 37.063 42.7725 37.0539 42.9707C37.048 43.1671 37.0025 43.3601 36.9204 43.5378C36.8382 43.7156 36.7211 43.8743 36.5764 44.0042C36.4447 44.1227 36.2879 44.2085 36.1182 44.2549C35.9485 44.3013 35.7706 44.307 35.5983 44.2716C35.4401 44.2381 35.2925 44.1652 35.1688 44.0594C35.0541 43.9539 34.9679 43.8202 34.9185 43.671C34.8685 43.532 34.8506 43.3832 34.8662 43.236C34.8817 43.0888 34.9303 42.9472 35.0082 42.8222C35.1493 42.6032 35.3633 42.4435 35.6109 42.3723C35.8004 42.3078 36.0069 42.3192 36.1885 42.4041C36.2443 42.4344 36.2923 42.4776 36.3286 42.5304C36.3648 42.5831 36.3883 42.6438 36.397 42.7076C36.4026 42.742 36.4026 42.7771 36.397 42.8116L36.3699 42.8434Z" fill="#406882"/>
<path d="M32.8061 43.1405C32.7796 43.1481 32.7543 43.1595 32.731 43.1745C32.6614 43.219 32.6051 43.2821 32.5684 43.357C32.5069 43.4838 32.4972 43.6303 32.5413 43.7644C32.5767 43.8549 32.6332 43.9354 32.7058 43.999C32.7784 44.0625 32.865 44.1073 32.9583 44.1294C33.0727 44.1565 33.192 44.1529 33.3045 44.1188C33.4276 44.0784 33.5377 44.0051 33.6235 43.9066C33.717 43.8046 33.7843 43.6806 33.8196 43.5458C33.854 43.4001 33.854 43.2481 33.8196 43.1023C33.7817 42.9513 33.7137 42.8098 33.6197 42.6868C33.5256 42.5637 33.4077 42.4617 33.2732 42.3872C33.0014 42.2374 32.6932 42.1697 32.3849 42.1919C32.0887 42.2025 31.8281 42.2513 31.5945 42.2577C31.3656 42.2656 31.1366 42.2449 30.9126 42.1962C30.5241 42.1103 30.1576 41.9426 29.8366 41.7038C29.6132 41.5378 29.4138 41.3406 29.2444 41.1181C29.1807 41.0352 29.1215 40.9487 29.0671 40.8592L29.0921 40.9356C29.1109 40.9887 29.1401 41.0629 29.1818 41.1478C29.3069 41.4177 29.4753 41.6644 29.6802 41.8778C29.9935 42.2032 30.3811 42.4445 30.8083 42.5803C31.0643 42.6621 31.3304 42.7064 31.5987 42.7118C31.8802 42.7118 32.1492 42.6715 32.4015 42.663C32.6271 42.6445 32.8535 42.6862 33.0584 42.784C33.1455 42.8259 33.2235 42.8851 33.2879 42.9579C33.3523 43.0308 33.4019 43.1159 33.4338 43.2084C33.463 43.2884 33.4727 43.3743 33.4622 43.459C33.4517 43.5436 33.4212 43.6244 33.3733 43.6944C33.3358 43.7553 33.2837 43.8056 33.2218 43.8404C33.16 43.8753 33.0905 43.8935 33.0198 43.8935C32.9492 43.8935 32.8797 43.8753 32.8178 43.8404C32.756 43.8056 32.7039 43.7553 32.6664 43.6944C32.6149 43.5969 32.6015 43.4832 32.6288 43.3761C32.645 43.303 32.6811 43.236 32.7331 43.1829C32.7552 43.1651 32.7798 43.1508 32.8061 43.1405Z" fill="#406882"/>
<path d="M38.5491 38.9366C38.5265 38.9156 38.5062 38.8921 38.4886 38.8665C38.4385 38.7986 38.4082 38.7177 38.401 38.6331C38.3884 38.5083 38.4226 38.3831 38.4969 38.283C38.5507 38.2243 38.6177 38.1799 38.6921 38.1535C38.7665 38.1272 38.8462 38.1198 38.9241 38.1319C39.002 38.1441 39.0758 38.1754 39.1391 38.2231C39.2024 38.2709 39.2533 38.3337 39.2873 38.406C39.3279 38.4914 39.3493 38.5849 39.3498 38.6798C39.347 38.7776 39.322 38.8735 39.2768 38.9599C39.1724 39.156 38.9964 39.3023 38.7868 39.3674C38.5406 39.4407 38.28 39.4487 38.0298 39.3907C37.7504 39.3377 37.4564 39.2422 37.1394 39.2018C36.8387 39.1614 36.5338 39.1657 36.2344 39.2146C35.7327 39.2936 35.2582 39.4986 34.8539 39.8109C34.5896 40.015 34.3606 40.2624 34.1761 40.543C34.1136 40.6406 34.0677 40.7213 34.0406 40.7743L33.9989 40.8592L34.0594 40.7892C34.099 40.7425 34.1595 40.6767 34.2408 40.5982C34.4671 40.3772 34.7226 40.1893 34.9999 40.0401C35.3979 39.8267 35.8355 39.7009 36.2844 39.6708C36.5439 39.655 36.8043 39.6707 37.0602 39.7175C37.3208 39.7642 37.6044 39.8639 37.9339 39.9297C38.2762 40.0062 38.6328 39.9819 38.962 39.8597C39.1251 39.7991 39.2741 39.7046 39.3994 39.5822C39.5247 39.4598 39.6236 39.3122 39.6897 39.1488C39.7524 38.9923 39.7768 38.8226 39.7606 38.6543C39.7424 38.4969 39.6873 38.3463 39.6001 38.2151C39.519 38.0918 39.4075 37.9922 39.2768 37.9264C39.1565 37.869 39.0235 37.8449 38.8911 37.8564C38.7817 37.8637 38.6757 37.898 38.5823 37.9565C38.4889 38.0149 38.4109 38.0957 38.3551 38.1917C38.3195 38.2626 38.298 38.34 38.2919 38.4194C38.2858 38.4988 38.2953 38.5787 38.3197 38.6543C38.3476 38.7447 38.4005 38.825 38.4719 38.8857C38.4957 38.9055 38.5216 38.9226 38.5491 38.9366Z" fill="#406882"/>
<path d="M37.8943 43.3527L37.911 43.4376C37.911 43.4928 37.9402 43.5692 37.9652 43.6647C38.0346 43.8997 38.1327 44.125 38.2571 44.3353C38.3923 44.5622 38.5548 44.7711 38.7409 44.957C38.8485 45.0624 38.9635 45.1595 39.085 45.2478C39.1396 45.2899 39.2032 45.3182 39.2706 45.3305C39.3247 45.3434 39.3812 45.3397 39.4333 45.3199C39.4778 45.3041 39.5181 45.2779 39.5507 45.2432C39.5833 45.2085 39.6074 45.1664 39.6209 45.1204C39.6378 45.0751 39.6453 45.0268 39.643 44.9784C39.6407 44.93 39.6286 44.8826 39.6074 44.8392C39.5863 44.7957 39.5566 44.7572 39.5202 44.726C39.4837 44.6948 39.4414 44.6716 39.3957 44.6578C39.2811 44.6182 39.169 44.5714 39.06 44.5178C38.8584 44.4142 38.67 44.2859 38.499 44.1358C38.3295 43.9845 38.1796 43.8119 38.0528 43.6222C38.0027 43.5437 37.961 43.4779 37.936 43.4291L37.8943 43.3527Z" fill="#406882"/>
<path d="M37.7566 43.6392C37.7566 43.6392 37.7441 43.6668 37.7254 43.7156C37.6988 43.7847 37.6772 43.8556 37.6607 43.9278C37.6127 44.1587 37.6028 44.3961 37.6315 44.6302C37.664 44.8786 37.7227 45.1226 37.8067 45.3581C37.8776 45.5576 37.9381 45.6998 37.9548 45.738C37.9701 45.787 37.9967 45.8316 38.0324 45.8681C38.068 45.9046 38.1117 45.9319 38.1597 45.9479C38.2078 45.9638 38.2589 45.9679 38.3088 45.9599C38.3587 45.9518 38.4061 45.9317 38.4469 45.9014C38.4889 45.8762 38.5248 45.8416 38.5519 45.8002C38.5789 45.7589 38.5964 45.7118 38.603 45.6626C38.6096 45.6134 38.6052 45.5633 38.5901 45.5161C38.575 45.4689 38.5495 45.4258 38.5157 45.39C38.2867 45.1336 38.0912 44.8483 37.9339 44.5411C37.8414 44.3483 37.7815 44.1409 37.7566 43.9278C37.753 43.8571 37.753 43.7863 37.7566 43.7156V43.6392Z" fill="#406882"/>
<path d="M37.277 44.1697C37.277 44.1697 37.2207 44.244 37.1415 44.3607C37.0421 44.5095 36.9535 44.6656 36.8766 44.8276C36.7466 45.0984 36.6465 45.3831 36.5784 45.6765C36.5305 45.9014 36.7202 46.0117 36.9079 45.999C37.0956 45.9863 37.2645 45.8865 37.2353 45.7062C37.1895 45.4422 37.1706 45.1741 37.179 44.9061C37.187 44.6579 37.2199 44.4112 37.277 44.1697Z" fill="#406882"/>
</svg>
