<svg width="15" height="15" viewBox="0 0 15 15" fill="none" xmlns="http://www.w3.org/2000/svg">
<path d="M1.16687 6.21703C2.76387 9.69527 5.60554 12.4607 9.13849 13.9599L9.70482 14.2122C11.0005 14.7895 12.5236 14.3509 13.3139 13.173L14.054 12.0699C14.2946 11.7112 14.2213 11.2282 13.8852 10.957L11.3753 8.93219C11.0067 8.63478 10.4646 8.70405 10.1826 9.08461L9.40612 10.1323C7.41378 9.14954 5.79624 7.53199 4.81345 5.53965L5.86116 4.76322C6.24171 4.4812 6.31098 3.93911 6.01358 3.57045L3.98868 1.0605C3.71756 0.724432 3.23464 0.651126 2.876 0.8916L1.7653 1.63635C0.580017 2.43111 0.143866 3.96681 0.734476 5.26594L1.16622 6.21561L1.16687 6.21703Z" fill="#406882"/>
</svg>
