<svg width="16" height="15" viewBox="0 0 16 15" fill="none" xmlns="http://www.w3.org/2000/svg">
<path d="M4.04157 3.33323C4.04157 4.13865 4.69449 4.79156 5.49991 4.79156H10.4999C11.3053 4.79156 11.9582 4.13865 11.9582 3.33323V0.56348C11.9582 0.436329 12.0613 0.333252 12.1885 0.333252C12.3101 0.333252 12.4256 0.386362 12.5047 0.478654L14.9736 3.35715C15.3158 3.75609 15.4945 4.26962 15.474 4.79481L15.1893 12.0813C15.1456 13.1994 14.2265 14.0833 13.1076 14.0833H12.7916C12.5615 14.0833 12.3749 13.8967 12.3749 13.6666V9.49992C12.3749 8.6945 11.722 8.04158 10.9166 8.04158H5.08324C4.27783 8.04158 3.62491 8.6945 3.62491 9.49992V13.6666C3.62491 13.8967 3.43836 14.0833 3.20824 14.0833H3.094C2.09081 14.0833 1.24387 13.3378 1.11648 12.3428C0.704887 9.12774 0.687156 5.8745 1.06368 2.65518L1.11442 2.22137C1.24033 1.14488 2.15241 0.333252 3.23625 0.333252H3.62491C3.85503 0.333252 4.04157 0.5198 4.04157 0.749919V3.33323Z" fill="#406882"/>
<path d="M4.87491 13.6666C4.87491 13.8967 5.06146 14.0833 5.29157 14.0833H10.7082C10.9384 14.0833 11.1249 13.8967 11.1249 13.6666V9.49992C11.1249 9.38486 11.0316 9.29158 10.9166 9.29158H5.08324C4.96818 9.29158 4.87491 9.38486 4.87491 9.49992V13.6666Z" fill="#406882"/>
<path d="M10.7082 0.749919C10.7082 0.5198 10.5217 0.333252 10.2916 0.333252H5.70824C5.47812 0.333252 5.29157 0.5198 5.29157 0.749919V3.33323C5.29157 3.44829 5.38485 3.54156 5.49991 3.54156H10.4999C10.615 3.54156 10.7082 3.44829 10.7082 3.33323V0.749919Z" fill="#406882"/>
</svg>
