<svg width="300" height="77" viewBox="0 0 300 77" fill="none" xmlns="http://www.w3.org/2000/svg">
<path d="M35.025 0.0991211C34.5746 0.163345 33.1268 0.388138 31.8077 0.580818C27.1105 1.28731 20.9333 3.76003 16.5256 6.74655C13.8552 8.577 9.5119 12.7838 7.3885 15.6419C3.946 20.2341 1.53304 25.8539 0.439161 31.8591C0.020914 34.0749 -0.0756046 35.9375 0.0530868 39.8874C0.246124 46.31 1.05045 49.714 3.78514 55.3017C6.68069 61.2105 9.83363 65.1284 14.8204 68.9498C29.7808 80.5106 51.0149 79.5151 64.817 66.6377C78.78 53.5676 81.0322 32.2444 70.0612 16.4126C64.5918 8.51278 55.3582 2.50761 45.835 0.709274C43.229 0.195457 36.5371 -0.189896 35.025 0.0991211ZM44.9986 4.27383C53.5244 5.87949 61.2458 10.7607 66.7152 18.0504C70.0934 22.5462 72.7637 29.6112 73.2141 35.2952L73.4072 37.8H70.8655H68.3239L66.2326 40.6902C65.0744 42.2959 64.0127 43.5483 63.8197 43.4841C63.6588 43.4198 62.211 38.924 60.6024 33.529C59.0259 28.1018 57.546 23.6702 57.3851 23.6702C57.1921 23.6702 55.2939 29.3864 53.2026 36.387C51.0792 43.3877 49.2454 49.2644 49.1167 49.4571C48.9558 49.714 48.7949 49.714 48.6019 49.5213C48.441 49.3287 47.0576 42.1995 45.5133 33.6253C43.969 25.0511 42.6178 17.665 42.5212 17.1512L42.3604 16.2842H50.4036H58.479L61.6319 19.0138C63.4014 20.5552 64.8814 21.615 65.0422 21.4544C65.2031 21.2938 64.1092 19.2707 62.4684 16.798L59.6372 12.4306L50.6288 12.3664L41.6526 12.27L41.0735 9.09082C40.7517 7.32459 40.3657 5.75105 40.1726 5.55836C39.9796 5.36568 39.6257 5.78316 39.1753 6.8429C38.7892 7.70995 38.0814 9.31561 37.5666 10.4075L36.6658 12.4306H26.2096C20.4507 12.4306 15.7213 12.3021 15.7213 12.1737C15.7213 11.7883 19.4533 9.12293 21.8341 7.8384C24.6653 6.26485 27.8826 5.07667 31.1642 4.40229C34.7032 3.63158 41.363 3.56734 44.9986 4.27383ZM39.5292 11.6278C39.5292 12.1416 39.3361 12.4306 39.0466 12.4306C38.5318 12.4306 38.4353 12.1416 38.757 11.3387C39.0466 10.5359 39.5292 10.7286 39.5292 11.6278ZM20.8367 23.8308C24.3758 29.3864 27.3035 34.0428 27.3035 34.2033C27.3035 34.3639 27.0139 35.1667 26.66 36.0017L25.9844 37.4789H14.7561H3.49558V36.5797C3.49558 33.5932 4.94336 27.877 6.68069 23.8629C8.06413 20.6837 13.1796 13.7151 14.1126 13.7151C14.2413 13.7151 17.2656 18.2752 20.8367 23.8308ZM34.9285 16.6695C33.7702 19.5276 31.679 24.2161 31.486 24.4088C31.2607 24.6657 26.6922 17.8898 26.4026 16.8622C26.274 16.3163 26.5957 16.2842 30.6816 16.2842C34.092 16.2842 35.0571 16.3805 34.9285 16.6695ZM40.5909 17.1512C40.6874 17.665 42.3926 26.5604 44.3551 36.9972C46.3498 47.4019 48.0871 56.0724 48.248 56.233C48.4089 56.3936 48.6341 56.4578 48.7306 56.3293C48.8593 56.233 50.6931 50.549 52.8487 43.7088C55.0043 36.8687 56.9025 31.2168 57.0955 31.1526C57.3208 31.0884 58.5755 34.4281 60.0876 39.0845C61.5354 43.4841 62.8545 47.1128 63.0154 47.1128C63.1762 47.1128 64.4953 45.443 65.9431 43.4198L68.6134 39.7268H70.962H73.3107V40.8187C73.3107 42.5849 72.4098 47.1128 71.6055 49.5213C65.1388 68.436 44.709 78.1021 26.0166 71.0693C23.0567 69.9774 19.0029 67.7295 17.0082 66.0596L15.8821 65.1284L37.9527 65.0962H60.0233L64.1092 58.9626C66.3613 55.5907 68.163 52.6363 68.0987 52.3473C68.0343 51.9941 66.7474 52.7648 63.7232 54.9485L59.4763 58.0313H42.2639C32.4833 58.0313 25.0192 57.9029 24.9227 57.7423C24.8262 57.5818 28.0113 53.5034 32.0007 48.6864C35.9902 43.8373 39.497 39.5662 39.7544 39.1809C40.1726 38.5386 39.9796 38.1533 36.4084 32.6298C34.3172 29.3864 32.6442 26.5925 32.7085 26.4319C32.7407 26.2393 33.6737 23.8629 34.7676 21.1654L36.7301 16.2842H38.564C40.3335 16.2842 40.43 16.3163 40.5909 17.1512ZM32.1294 41.7178C32.1294 41.8784 28.1078 46.9202 23.2175 52.9575L14.2735 63.8759L12.7292 62.1739C7.61371 56.4578 4.26773 49.0718 3.62427 41.8463L3.39906 39.4057H15.3674H27.3357L28.0113 37.7679L28.6869 36.1622L30.4243 38.7955C31.3573 40.2406 32.1294 41.5573 32.1294 41.7178Z" fill="#406882"/>
<path d="M114.882 19.1473C106.169 20.2198 99.5453 25.7125 97.4895 33.6103C96.8368 36.1129 96.8368 41.8006 97.4895 44.3356C99.5453 52.3634 105.843 57.5636 114.947 58.7986C119.157 59.3836 125.226 58.6361 127.282 57.3036C127.935 56.8811 128 56.5561 128 54.2485C128 52.8184 127.837 51.5834 127.674 51.4859C127.478 51.3559 126.662 51.8434 125.879 52.5909C121.637 56.4911 116.514 56.8811 111.945 53.5985C108.519 51.1609 106.333 46.9032 105.713 41.5406C104.799 33.4153 108.127 25.9725 113.936 23.1449C115.437 22.3974 116.187 22.2349 118.211 22.2349C121.115 22.2349 123.366 23.1449 125.781 25.29C126.629 26.0375 127.478 26.5901 127.674 26.46C127.837 26.3625 128 25.095 128 23.6975C128 21.3574 127.935 21.0649 127.249 20.6424C125.455 19.4398 118.863 18.6598 114.882 19.1473Z" fill="#406882"/>
<path d="M150.2 20.2009C143.501 21.2236 137.575 25.2185 135.063 30.4599C130.49 39.9839 133.807 52.0967 142.18 56.5071C145.852 58.4567 148.396 59 153.42 59C156.77 59 158.477 58.8402 160.023 58.3928C166.625 56.5711 171.069 52.4802 173.13 46.2481C173.871 44.0109 173.968 43.116 174 39.6643C174 36.0209 173.903 35.4137 173.034 32.9528C171.295 28.0949 168.3 24.6113 163.887 22.4061C160.023 20.4885 154.354 19.5617 150.2 20.2009ZM158.187 24.0041C161.44 25.634 164.048 29.5011 165.047 34.2632C165.82 37.8426 165.53 43.8191 164.403 47.1749C162.953 51.5853 160.055 54.7813 156.705 55.6762C155.965 55.8679 154.193 55.9638 152.776 55.8999C150.683 55.804 149.846 55.5803 148.461 54.8452C144.081 52.4483 141.633 47.079 141.601 39.6643C141.601 32.7291 143.565 27.7114 147.494 24.867C149.523 23.3968 150.844 23.0453 153.903 23.1412C156.061 23.2051 156.963 23.3649 158.187 24.0041Z" fill="#406882"/>
<path d="M193.346 20.1194C193.023 20.3428 192.958 24.3638 193.023 39.2033L193.12 58H196.679H200.239L200.336 50.4047L200.4 42.8414H206.322C213.02 42.8414 214.541 42.5542 216.968 40.8309C222.728 36.8098 223.699 29.055 219.071 23.8213C217.68 22.2257 214.541 20.5343 212.632 20.3428C209.882 20.0556 193.767 19.8641 193.346 20.1194ZM209.655 23.215C210.529 23.4703 211.888 24.2043 212.632 24.8425C217.648 29.055 216.742 36.3631 210.885 39.2033C209.234 40.0011 208.62 40.0969 204.736 40.2245L200.4 40.3841V31.5442V22.7363H204.219C206.646 22.7363 208.62 22.8958 209.655 23.215Z" fill="#406882"/>
<path d="M238.833 20.6974C238.161 21.7753 222 57.2805 222 57.6926C222 57.9462 222.608 58.0413 223.792 57.9779L225.584 57.8828L228.208 52.1132L230.801 46.3119L239.217 46.407L247.634 46.4704L250.258 52.1766L252.882 57.8828L256.53 57.9779C259.378 58.0413 260.114 57.9779 259.986 57.6609C258.962 54.998 242.961 20.4121 242.673 20.2536C242.481 20.1268 241.649 20 240.817 20C239.601 20 239.217 20.1268 238.833 20.6974ZM242.769 35.7871C244.561 39.6864 246.001 43.015 246.001 43.1735C246.001 43.332 243.025 43.4588 239.089 43.4588C235.281 43.4588 232.241 43.332 232.305 43.2052C233.649 39.8132 239.153 28.3057 239.313 28.4959C239.441 28.6227 241.009 31.9196 242.769 35.7871Z" fill="#406882"/>
<path d="M267.34 19.2544C267.022 19.4817 266.959 23.5739 267.022 38.6759L267.117 57.8051H270.612H274.107L274.202 48.7764L274.266 39.7801H283.479H292.693L292.756 48.7764L292.852 57.8051L296.442 57.9026L300 58L299.936 38.5785L299.841 19.157L296.696 19.0595C294.663 18.9946 293.423 19.092 293.138 19.3518C292.788 19.6441 292.693 21.3654 292.693 28.2831V36.8572H283.479H274.266V28.1207C274.266 20.4561 274.202 19.3518 273.758 19.1894C273.027 18.8971 267.816 18.9621 267.34 19.2544Z" fill="#406882"/>
</svg>
